<?xml version="1.0" encoding="UTF-8"?>
<!DOCTYPE svg PUBLIC "-//W3C//DTD SVG 1.1//EN" "http://www.w3.org/Graphics/SVG/1.1/DTD/svg11.dtd">
<svg xmlns="http://www.w3.org/2000/svg" version="1.1" width="200px" height="200px" style="shape-rendering:geometricPrecision; text-rendering:geometricPrecision; image-rendering:optimizeQuality; fill-rule:evenodd; clip-rule:evenodd" xmlns:xlink="http://www.w3.org/1999/xlink">
<g><path style="opacity:1" fill="#010000" d="M -0.5,-0.5 C 66.1667,-0.5 132.833,-0.5 199.5,-0.5C 199.5,66.1667 199.5,132.833 199.5,199.5C 132.833,199.5 66.1667,199.5 -0.5,199.5C -0.5,132.833 -0.5,66.1667 -0.5,-0.5 Z"/></g>
<g><path style="opacity:1" fill="#92040a" d="M 118.5,28.5 C 118.5,30.1667 118.5,31.8333 118.5,33.5C 117.473,36.6928 115.306,38.6928 112,39.5C 110.97,39.1639 110.47,38.4972 110.5,37.5C 114.093,36.5702 115.759,34.2368 115.5,30.5C 116.222,29.4489 117.222,28.7822 118.5,28.5 Z"/></g>
<g><path style="opacity:1" fill="#250603" d="M 123.5,41.5 C 125.847,39.4192 128.18,37.4192 130.5,35.5C 132.104,34.713 132.771,33.3797 132.5,31.5C 133.675,31.281 134.675,31.6143 135.5,32.5C 132.12,39.3355 126.787,42.8355 119.5,43C 121.058,42.79 122.391,42.29 123.5,41.5 Z"/></g>
<g><path style="opacity:1" fill="#2c0804" d="M 125.5,34.5 C 124.712,37.6209 122.712,39.2876 119.5,39.5C 116.888,40.3705 114.221,41.0372 111.5,41.5C 109.833,41.5 108.167,41.5 106.5,41.5C 108.129,39.8041 107.796,38.8041 105.5,38.5C 107.575,36.2812 109.909,34.2812 112.5,32.5C 112.833,32.8333 113.167,33.1667 113.5,33.5C 112.174,34.6422 111.174,35.9755 110.5,37.5C 110.47,38.4972 110.97,39.1639 112,39.5C 115.306,38.6928 117.473,36.6928 118.5,33.5C 119.151,32.9094 119.818,32.2427 120.5,31.5C 121.645,32.7757 121.645,34.109 120.5,35.5C 121,35.8333 121.5,36.1667 122,36.5C 123.077,35.5705 124.244,34.9038 125.5,34.5 Z"/></g>
<g><path style="opacity:1" fill="#a30507" d="M 130.5,35.5 C 128.18,37.4192 125.847,39.4192 123.5,41.5C 121.801,41.6602 120.134,41.4935 118.5,41C 119.056,40.6174 119.389,40.1174 119.5,39.5C 122.712,39.2876 124.712,37.6209 125.5,34.5C 127.011,33.4975 128.678,32.8308 130.5,32.5C 130.5,33.5 130.5,34.5 130.5,35.5 Z"/></g>
<g><path style="opacity:1" fill="#45040b" d="M 105.5,38.5 C 107.796,38.8041 108.129,39.8041 106.5,41.5C 106.265,42.0967 105.765,42.4301 105,42.5C 102.384,41.3847 99.8844,40.0514 97.5,38.5C 93.9444,39.8624 90.7777,41.8624 88,44.5C 85.1017,49.0241 81.935,53.3575 78.5,57.5C 74.818,54.0375 72.318,50.0375 71,45.5C 71.7083,46.3805 72.5416,47.0472 73.5,47.5C 74.9117,49.9801 76.5784,52.3134 78.5,54.5C 82.1948,45.8074 88.5281,39.8074 97.5,36.5C 99.571,37.6175 101.738,38.6175 104,39.5C 104.765,39.4301 105.265,39.0967 105.5,38.5 Z"/></g>
<g><path style="opacity:1" fill="#130d0d" d="M 106.5,41.5 C 108.167,41.5 109.833,41.5 111.5,41.5C 112.332,44.0932 112.332,46.4265 111.5,48.5C 113.115,46.5637 115.282,45.5637 118,45.5C 121.634,46.5858 124.801,46.5858 127.5,45.5C 127.62,46.5862 128.287,47.2528 129.5,47.5C 131.93,46.6533 131.93,45.6533 129.5,44.5C 131.268,43.4925 132.601,44.1592 133.5,46.5C 129.436,51.0494 126.103,56.0494 123.5,61.5C 126.283,65.5598 128.95,69.7265 131.5,74C 128.689,77.8091 126.022,81.6424 123.5,85.5C 123.631,84.6236 123.298,83.9569 122.5,83.5C 118.433,86.2395 115.433,89.9062 113.5,94.5C 109.511,100.578 104.011,104.578 97,106.5C 94.1808,106.007 91.6808,104.84 89.5,103C 87.0343,100.521 84.701,98.0214 82.5,95.5C 79.8333,91.8333 77.1667,88.1667 74.5,84.5C 73.0476,83.2869 71.7143,83.6203 70.5,85.5C 68.1361,80.7723 65.8028,76.1056 63.5,71.5C 66.6395,68.5598 69.3061,65.2265 71.5,61.5C 69.6214,57.4468 67.1214,53.7801 64,50.5C 63.5172,49.552 63.3505,48.552 63.5,47.5C 61.5096,47.0069 61.5096,45.8402 63.5,44C 65.4727,43.5045 67.4727,43.3379 69.5,43.5C 71.7727,43.9568 73.106,45.2901 73.5,47.5C 72.5416,47.0472 71.7083,46.3805 71,45.5C 72.318,50.0375 74.818,54.0375 78.5,57.5C 81.935,53.3575 85.1017,49.0241 88,44.5C 90.7777,41.8624 93.9444,39.8624 97.5,38.5C 99.8844,40.0514 102.384,41.3847 105,42.5C 105.765,42.4301 106.265,42.0967 106.5,41.5 Z"/></g>
<g><path style="opacity:1" fill="#69070c" d="M 103.5,68.5 C 105.031,67.0755 104.698,66.4088 102.5,66.5C 103.508,64.6614 105.008,63.3281 107,62.5C 108.718,60.1029 109.885,57.4362 110.5,54.5C 111.647,56.7649 111.814,59.0982 111,61.5C 108.953,64.4191 106.453,66.7524 103.5,68.5 Z"/></g>
<g><path style="opacity:1" fill="#510509" d="M 111.5,48.5 C 114.089,49.6478 115.755,51.6478 116.5,54.5C 118.727,52.3932 120.727,50.0599 122.5,47.5C 122.833,47.8333 123.167,48.1667 123.5,48.5C 121.492,51.9996 118.992,54.9996 116,57.5C 112.695,55.4246 111.195,52.4246 111.5,48.5 Z"/></g>
<g><path style="opacity:1" fill="#313232" d="M 91.5,44.5 C 91.7352,43.9033 92.2352,43.5699 93,43.5C 97.038,44.1692 100.871,45.3359 104.5,47C 103.718,49.7405 103.218,52.5738 103,55.5C 100.763,57.2036 98.2625,58.2036 95.5,58.5C 95.6495,57.448 95.4828,56.448 95,55.5C 94.2588,56.6405 93.4255,56.6405 92.5,55.5C 91.8128,51.6673 91.4795,48.0006 91.5,44.5 Z"/></g>
<g><path style="opacity:1" fill="#e2a115" d="M 63.5,47.5 C 64.2032,44.1394 65.5365,43.8061 67.5,46.5C 66.3112,47.4287 64.9778,47.762 63.5,47.5 Z"/></g>
<g><path style="opacity:1" fill="#42070e" d="M 69.5,43.5 C 67.4727,43.3379 65.4727,43.5045 63.5,44C 61.5096,45.8402 61.5096,47.0069 63.5,47.5C 63.3505,48.552 63.5172,49.552 64,50.5C 67.1214,53.7801 69.6214,57.4468 71.5,61.5C 69.3061,65.2265 66.6395,68.5598 63.5,71.5C 63.3505,70.448 63.5172,69.448 64,68.5C 66.1876,66.6194 68.0209,64.4528 69.5,62C 66.3791,56.7092 63.0458,51.5425 59.5,46.5C 61.9768,41.4428 65.3102,40.4428 69.5,43.5 Z"/></g>
<g><path style="opacity:1" fill="#620405" d="M 79.5,61.5 C 83.3172,62.5335 84.3172,64.8668 82.5,68.5C 80.7556,66.5736 79.7556,64.2403 79.5,61.5 Z"/></g>
<g><path style="opacity:1" fill="#6f050b" d="M 93.5,67.5 C 93.5,68.5 93.5,69.5 93.5,70.5C 86.4809,67.2063 83.4809,61.873 84.5,54.5C 85.7616,57.1155 86.9282,59.7821 88,62.5C 90.3284,63.6635 92.1618,65.3302 93.5,67.5 Z"/></g>
<g><path style="opacity:1" fill="#53080a" d="M 113.5,61.5 C 114.779,64.6336 114.279,67.6336 112,70.5C 111.068,67.1769 111.568,64.1769 113.5,61.5 Z"/></g>
<g><path style="opacity:1" fill="#940506" d="M 102.5,66.5 C 104.698,66.4088 105.031,67.0755 103.5,68.5C 102.038,69.4577 100.705,70.6244 99.5,72C 97.0106,72.9411 95.0106,72.4411 93.5,70.5C 93.5,69.5 93.5,68.5 93.5,67.5C 96.6272,68.688 99.6272,68.3547 102.5,66.5 Z"/></g>
<g><path style="opacity:1" fill="#323233" d="M 73.5,64.5 C 74.8333,64.5 76.1667,64.5 77.5,64.5C 77.3389,67.5279 78.0056,70.3612 79.5,73C 78.6815,74.3188 77.6815,75.4855 76.5,76.5C 73.808,74.1377 71.1413,71.8044 68.5,69.5C 69.8818,67.4514 71.5484,65.7847 73.5,64.5 Z"/></g>
<g><path style="opacity:1" fill="#43060b" d="M 113.5,101.5 C 116.648,97.2256 119.815,92.8923 123,88.5C 123.692,87.5632 123.525,86.8966 122.5,86.5C 122.5,85.8333 122.833,85.5 123.5,85.5C 126.022,81.6424 128.689,77.8091 131.5,74C 128.95,69.7265 126.283,65.5598 123.5,61.5C 126.103,56.0494 129.436,51.0494 133.5,46.5C 132.601,44.1592 131.268,43.4925 129.5,44.5C 128.833,44.8333 128.167,45.1667 127.5,45.5C 124.801,46.5858 121.634,46.5858 118,45.5C 115.282,45.5637 113.115,46.5637 111.5,48.5C 112.332,46.4265 112.332,44.0932 111.5,41.5C 114.221,41.0372 116.888,40.3705 119.5,39.5C 119.389,40.1174 119.056,40.6174 118.5,41C 120.134,41.4935 121.801,41.6602 123.5,41.5C 122.391,42.29 121.058,42.79 119.5,43C 126.787,42.8355 132.12,39.3355 135.5,32.5C 134.675,31.6143 133.675,31.281 132.5,31.5C 132.771,33.3797 132.104,34.713 130.5,35.5C 130.5,34.5 130.5,33.5 130.5,32.5C 128.678,32.8308 127.011,33.4975 125.5,34.5C 124.244,34.9038 123.077,35.5705 122,36.5C 121.5,36.1667 121,35.8333 120.5,35.5C 121.645,34.109 121.645,32.7757 120.5,31.5C 119.818,32.2427 119.151,32.9094 118.5,33.5C 118.5,31.8333 118.5,30.1667 118.5,28.5C 117.222,28.7822 116.222,29.4489 115.5,30.5C 114.588,28.8227 113.921,26.9893 113.5,25C 113.309,23.0271 113.976,21.5271 115.5,20.5C 119.637,23.2973 122.637,26.964 124.5,31.5C 125.333,30.5 126.167,29.5 127,28.5C 131.196,29.1045 135.363,29.9378 139.5,31C 136.87,34.6317 133.87,37.965 130.5,41C 133.25,42.0848 134.917,44.0848 135.5,47C 131.774,51.728 128.441,56.728 125.5,62C 128.006,65.1714 130.506,68.3381 133,71.5C 133.824,75.1858 132.491,77.8524 129,79.5C 125.915,88.3993 120.749,95.7327 113.5,101.5 Z"/></g>
<g><path style="opacity:1" fill="#d99f22" d="M 129.5,44.5 C 131.93,45.6533 131.93,46.6533 129.5,47.5C 128.287,47.2528 127.62,46.5862 127.5,45.5C 128.167,45.1667 128.833,44.8333 129.5,44.5 Z"/></g>
<g><path style="opacity:1" fill="#110200" d="M 118.5,28.5 C 117.828,27.7326 116.995,27.0659 116,26.5C 115.251,25.365 115.417,24.365 116.5,23.5C 118.167,25.5 119.833,27.5 121.5,29.5C 121.167,29.8333 120.833,30.1667 120.5,30.5C 119.818,29.7573 119.151,29.0906 118.5,28.5 Z"/></g>
<g><path style="opacity:1" fill="#222123" d="M 117.5,64.5 C 122.897,64.5613 126.23,67.2279 127.5,72.5C 125.238,76.4321 122.238,79.7655 118.5,82.5C 116.156,80.8058 115.156,78.4725 115.5,75.5C 116.471,71.8907 117.137,68.2241 117.5,64.5 Z"/></g>
<g><path style="opacity:1" fill="#323131" d="M 95.5,75.5 C 108.255,75.7756 108.755,78.109 97,82.5C 94.6196,81.7993 92.4529,80.6326 90.5,79C 92.2331,77.8111 93.8998,76.6444 95.5,75.5 Z"/></g>
<g><path style="opacity:1" fill="#302f2e" d="M 81.5,74.5 C 82.3764,74.3691 83.0431,74.7025 83.5,75.5C 85.1492,79.4639 87.3159,83.1306 90,86.5C 90.49,87.7932 90.6567,89.1266 90.5,90.5C 85.6058,90.3022 81.9392,87.9689 79.5,83.5C 81.1298,80.7239 81.7965,77.7239 81.5,74.5 Z"/></g>
<g><path style="opacity:1" fill="#64060f" d="M 99.5,90.5 C 99.5,89.5 99.5,88.5 99.5,87.5C 98.1667,87.5 96.8333,87.5 95.5,87.5C 95.5,88.5 95.5,89.5 95.5,90.5C 93.8958,89.713 93.2291,88.3797 93.5,86.5C 96.1667,86.5 98.8333,86.5 101.5,86.5C 101.771,88.3797 101.104,89.713 99.5,90.5 Z"/></g>
<g><path style="opacity:1" fill="#9f0608" d="M 74.5,84.5 C 77.1667,88.1667 79.8333,91.8333 82.5,95.5C 82.5,96.1667 82.1667,96.5 81.5,96.5C 81.1667,96.5 80.8333,96.5 80.5,96.5C 77.8581,92.8516 75.1914,89.1849 72.5,85.5C 72.9569,84.7025 73.6236,84.3691 74.5,84.5 Z"/></g>
<g><path style="opacity:1" fill="#303031" d="M 111.5,74.5 C 117.1,83.643 114.434,88.9763 103.5,90.5C 103.167,90.1667 102.833,89.8333 102.5,89.5C 106.799,85.2286 109.799,80.2286 111.5,74.5 Z"/></g>
<g><path style="opacity:1" fill="#ab0207" d="M 99.5,90.5 C 98.1667,90.5 96.8333,90.5 95.5,90.5C 95.5,89.5 95.5,88.5 95.5,87.5C 96.8333,87.5 98.1667,87.5 99.5,87.5C 99.5,88.5 99.5,89.5 99.5,90.5 Z"/></g>
<g><path style="opacity:1" fill="#960807" d="M 123.5,85.5 C 122.833,85.5 122.5,85.8333 122.5,86.5C 119.833,89.5 117.167,92.5 114.5,95.5C 113.833,95.5 113.5,95.1667 113.5,94.5C 115.433,89.9062 118.433,86.2395 122.5,83.5C 123.298,83.9569 123.631,84.6236 123.5,85.5 Z"/></g>
<g><path style="opacity:1" fill="#3a0706" d="M 63.5,71.5 C 65.8028,76.1056 68.1361,80.7723 70.5,85.5C 71.7143,83.6203 73.0476,83.2869 74.5,84.5C 73.6236,84.3691 72.9569,84.7025 72.5,85.5C 75.1914,89.1849 77.8581,92.8516 80.5,96.5C 79.475,96.8966 79.3083,97.5632 80,98.5C 84.3954,103.064 88.8954,107.398 93.5,111.5C 92.448,111.649 91.448,111.483 90.5,111C 84.3333,106.167 78.8333,100.667 74,94.5C 69.737,87.8508 65.5703,81.1841 61.5,74.5C 61.4534,72.9623 62.1201,71.9623 63.5,71.5 Z"/></g>
<g><path style="opacity:1" fill="#73080d" d="M 113.5,94.5 C 113.5,95.1667 113.833,95.5 114.5,95.5C 109.883,101.649 104.216,106.649 97.5,110.5C 93.5261,108.508 89.8594,106.008 86.5,103C 84.2101,101.223 82.5434,99.0562 81.5,96.5C 82.1667,96.5 82.5,96.1667 82.5,95.5C 84.701,98.0214 87.0343,100.521 89.5,103C 91.6808,104.84 94.1808,106.007 97,106.5C 104.011,104.578 109.511,100.578 113.5,94.5 Z"/></g>
<g><path style="opacity:1" fill="#1e0200" d="M 122.5,86.5 C 123.525,86.8966 123.692,87.5632 123,88.5C 119.815,92.8923 116.648,97.2256 113.5,101.5C 113.5,102.167 113.167,102.5 112.5,102.5C 107.381,105.904 102.381,109.571 97.5,113.5C 96.3777,112.37 95.0443,111.703 93.5,111.5C 88.8954,107.398 84.3954,103.064 80,98.5C 79.3083,97.5632 79.475,96.8966 80.5,96.5C 80.8333,96.5 81.1667,96.5 81.5,96.5C 82.5434,99.0562 84.2101,101.223 86.5,103C 89.8594,106.008 93.5261,108.508 97.5,110.5C 104.216,106.649 109.883,101.649 114.5,95.5C 117.167,92.5 119.833,89.5 122.5,86.5 Z"/></g>
<g><path style="opacity:1" fill="#45080e" d="M 112.5,102.5 C 108.427,108.067 103.261,112.401 97,115.5C 95.6244,114.295 94.4577,112.962 93.5,111.5C 95.0443,111.703 96.3777,112.37 97.5,113.5C 102.381,109.571 107.381,105.904 112.5,102.5 Z"/></g>
<g><path style="opacity:1" fill="#ededed" d="M 55.5,133.5 C 55.5,134.167 55.5,134.833 55.5,135.5C 51.7424,137.254 47.7424,137.921 43.5,137.5C 43.244,135.088 44.244,133.421 46.5,132.5C 47.8333,127.833 47.8333,123.167 46.5,118.5C 44.4294,117.214 44.0961,115.547 45.5,113.5C 49.0938,112.574 52.7604,112.241 56.5,112.5C 56.7254,114.716 55.8921,116.383 54,117.5C 52.9456,123.114 53.4456,128.448 55.5,133.5 Z"/></g>
<g><path style="opacity:1" fill="#f1f1f1" d="M 78.5,111.5 C 81.1873,111.336 83.854,111.503 86.5,112C 87.7472,113.494 87.7472,114.994 86.5,116.5C 84.9411,117.074 83.4411,117.74 82,118.5C 81.6667,124.833 81.3333,131.167 81,137.5C 79.4126,138.727 78.0793,138.394 77,136.5C 76.5005,130.509 76.3338,124.509 76.5,118.5C 74.0225,118.949 72.0225,118.283 70.5,116.5C 72.6006,113.79 75.2673,112.123 78.5,111.5 Z"/></g>
<g><path style="opacity:1" fill="#f3f3f3" d="M 137.5,111.5 C 146.803,111.419 149.636,115.752 146,124.5C 144.285,127.397 141.785,128.731 138.5,128.5C 138.789,131.649 138.289,134.649 137,137.5C 135.413,138.727 134.079,138.394 133,136.5C 132.333,129.167 132.333,121.833 133,114.5C 134.652,113.601 136.152,112.601 137.5,111.5 Z"/></g>
<g><path style="opacity:1" fill="#f1f1f1" d="M 116.5,133.5 C 116.5,128.833 116.5,124.167 116.5,119.5C 117.696,117.019 119.196,117.019 121,119.5C 124.374,116.595 127.374,116.928 130,120.5C 130.914,126.03 130.247,131.363 128,136.5C 126.989,137.337 125.822,137.67 124.5,137.5C 124.827,132.786 124.493,128.12 123.5,123.5C 122.914,123.709 122.414,124.043 122,124.5C 121.667,128.167 121.333,131.833 121,135.5C 118.131,138.318 116.631,137.652 116.5,133.5 Z"/></g>
<g><path style="opacity:1" fill="#f0f0f0" d="M 153.5,116.5 C 160.797,116.617 162.964,119.95 160,126.5C 158.255,127.956 156.422,129.289 154.5,130.5C 155,130.833 155.5,131.167 156,131.5C 158.047,130.391 160.213,129.724 162.5,129.5C 162.08,135.086 159.08,137.586 153.5,137C 152.069,136.535 150.903,135.701 150,134.5C 147.18,127.628 148.347,121.628 153.5,116.5 Z"/></g>
<g><path style="opacity:1" fill="#f2f2f2" d="M 57.5,134.5 C 57.5,129.5 57.5,124.5 57.5,119.5C 59.0452,116.891 60.7118,116.891 62.5,119.5C 65.6705,116.665 68.5038,116.998 71,120.5C 72.01,126.064 71.3433,131.398 69,136.5C 67.9887,137.337 66.8221,137.67 65.5,137.5C 65.5688,119.417 64.2355,119.084 61.5,136.5C 59.1671,137.941 57.8338,137.275 57.5,134.5 Z"/></g>
<g><path style="opacity:1" fill="#e9eaea" d="M 91.5,116.5 C 98.4632,116.765 100.63,120.098 98,126.5C 96.0749,128.213 93.9082,129.547 91.5,130.5C 93.9593,131.643 96.2927,131.31 98.5,129.5C 100.836,131.118 100.836,132.952 98.5,135C 90.6295,138.865 86.2962,136.199 85.5,127C 85.8524,122.451 87.8524,118.951 91.5,116.5 Z"/></g>
<g><path style="opacity:1" fill="#101010" d="M 138.5,118.5 C 139.5,118.5 140.5,118.5 141.5,118.5C 139.614,124.764 138.614,124.764 138.5,118.5 Z"/></g>
<g><path style="opacity:1" fill="#e9e9ea" d="M 114.5,119.5 C 115.833,121.167 115.833,122.833 114.5,124.5C 112.208,124.244 110.041,124.577 108,125.5C 107.667,128.833 107.333,132.167 107,135.5C 105.216,138.003 103.549,138.003 102,135.5C 101.194,129.916 101.361,124.416 102.5,119C 104.888,118.135 106.388,118.968 107,121.5C 108.953,118.554 111.453,117.887 114.5,119.5 Z"/></g>
<g><path style="opacity:1" fill="#7a7a7a" d="M 114.5,119.5 C 115.167,119.5 115.833,119.5 116.5,119.5C 116.5,124.167 116.5,128.833 116.5,133.5C 115.833,130.5 115.167,127.5 114.5,124.5C 115.833,122.833 115.833,121.167 114.5,119.5 Z"/></g>
<g><path style="opacity:1" fill="#201d1e" d="M 92.5,121.5 C 94.0481,121.821 94.7148,122.821 94.5,124.5C 91.7524,124.598 91.0857,123.598 92.5,121.5 Z"/></g>
<g><path style="opacity:1" fill="#2e2e2e" d="M 154.5,121.5 C 158.193,122.247 158.193,123.58 154.5,125.5C 153.708,124.3 153.708,122.967 154.5,121.5 Z"/></g>
<g><path style="opacity:1" fill="#3f3f3f" d="M 57.5,119.5 C 57.5,124.5 57.5,129.5 57.5,134.5C 56.8333,134.833 56.1667,135.167 55.5,135.5C 55.5,134.833 55.5,134.167 55.5,133.5C 56.1667,128.833 56.8333,124.167 57.5,119.5 Z"/></g>
<g><path style="opacity:1" fill="#b5b5b5" d="M 83.5,151.5 C 85.288,151.215 86.9547,151.548 88.5,152.5C 87.9588,154.535 87.2922,156.535 86.5,158.5C 85.5927,156.061 84.5927,153.728 83.5,151.5 Z"/></g>
<g><path style="opacity:1" fill="#b6b6b6" d="M 109.5,151.5 C 111.288,151.215 112.955,151.548 114.5,152.5C 113.959,154.535 113.292,156.535 112.5,158.5C 111.593,156.061 110.593,153.728 109.5,151.5 Z"/></g>
<g><path style="opacity:1" fill="#c4c4c4" d="M 95.5,151.5 C 98.5239,151.947 98.8572,152.78 96.5,154C 99.3081,156.214 98.9748,157.714 95.5,158.5C 94.8333,158.167 94.1667,157.833 93.5,157.5C 94.376,156.749 95.376,156.249 96.5,156C 94.2177,154.916 93.8843,153.416 95.5,151.5 Z"/></g>
<g><path style="opacity:1" fill="#cbcbcb" d="M 105.5,151.5 C 108.524,151.947 108.857,152.78 106.5,154C 109.261,157.316 108.595,158.482 104.5,157.5C 105.025,156.808 105.692,156.308 106.5,156C 104.218,154.916 103.884,153.416 105.5,151.5 Z"/></g>
<g><path style="opacity:1" fill="#b8b8b8" d="M 123.5,151.5 C 125.144,151.286 126.644,151.62 128,152.5C 127.812,154.685 127.646,156.685 127.5,158.5C 126.808,157.975 126.308,157.308 126,156.5C 125.692,157.308 125.192,157.975 124.5,158.5C 123.526,156.257 123.192,153.924 123.5,151.5 Z"/></g>
<g><path style="opacity:1" fill="#b8b8b8" d="M 130.5,151.5 C 131.978,151.238 133.311,151.571 134.5,152.5C 132.832,160.201 131.498,159.868 130.5,151.5 Z"/></g>
<g><path style="opacity:1" fill="#b0b0b0" d="M 72.5,151.5 C 74.0147,153.207 75.348,155.207 76.5,157.5C 75.3112,158.429 73.9778,158.762 72.5,158.5C 72.5,156.167 72.5,153.833 72.5,151.5 Z"/></g>
<g><path style="opacity:1" fill="#aaaaaa" d="M 78.5,151.5 C 79.9778,151.238 81.3112,151.571 82.5,152.5C 81.9747,153.192 81.3081,153.692 80.5,154C 82.1066,155.049 82.7733,156.549 82.5,158.5C 81.1667,158.5 79.8333,158.5 78.5,158.5C 78.5,156.167 78.5,153.833 78.5,151.5 Z"/></g>
<g><path style="opacity:1" fill="#bcbcbc" d="M 117.5,152.5 C 118.5,152.5 119.5,152.5 120.5,152.5C 120.472,154.582 121.139,156.416 122.5,158C 122.167,158.167 121.833,158.333 121.5,158.5C 119.509,157.573 117.509,157.406 115.5,158C 116.464,156.275 117.131,154.441 117.5,152.5 Z"/></g>
</svg>
