<svg xmlns="http://www.w3.org/2000/svg" version="1.1" xmlns:xlink="http://www.w3.org/1999/xlink" xmlns:svgjs="http://svgjs.dev/svgjs" viewBox="0 0 7.1017114191619015 7.1017114191619015"><g transform="matrix(0.8571428571428572,0,0,0.8571428571428572,2.4170984746920556,2.4170984746920556)"><rect width="8.285329989022218" height="8.285329989022218" x="-2.819948220474065" y="-2.819948220474065" fill="#f8f8f8"></rect><g><path d=" M -1.3506970333959525 1.193711646645952 Q -1.3486668331885192 1.1519813250528188 -1.3387245378232304 1.1297780574530332 Q -1.3287822424579416 1.1075747898532475 -1.3180886982702325 1.0917887797898915 Q -1.3127247210898743 1.0835421279650514 -1.3099911172401841 1.0783578616731448 Q -1.307257513390494 1.0731735953812385 -1.3070166421794425 1.0682225402769685 Q -1.306466079411325 1.0569058428957798 -1.3373805361715498 1.0511480337655106 L -1.3365891021923808 1.034880281280052 Q -1.3231849342252266 1.0362413681535156 -1.3044932694471438 1.038214178117697 Q -1.285801604669061 1.040186988081878 -1.2554051855436201 1.0420202723143561 Q -1.225008766418179 1.043853556546834 -1.1754982153754785 1.0462622686573484 L -1.1762896493546473 1.0625300211428073 Q -1.21320655653554 1.0635698664917224 -1.2485521457255775 1.0760296397408482 Q -1.2838977349156149 1.0884894129899743 -1.3074334541995984 1.1132217084410796 Q -1.3309691734835818 1.137954003892185 -1.3327929126529712 1.1754405639673726 Q -1.3344446009573239 1.2093906561109387 -1.3164143894897955 1.2322458319581902 Q -1.2983841780222674 1.2551010078054416 -1.2644340858787013 1.2567526961097943 Q -1.2361423424257294 1.2581291030300883 -1.2152962717553402 1.2449639212343118 Q -1.1944502010849507 1.2317987394385352 -1.174028482593412 1.2054970110362482 Q -1.1536067641018732 1.1791952826339611 -1.1248370483061458 1.1416017219604042 Q -1.10125925882574 1.1087183451800657 -1.0780255710754076 1.0829079042629703 Q -1.0547918833250753 1.0570974633458747 -1.0264159994792588 1.0421717076077026 Q -0.9980401156334424 1.0272459518695303 -0.9598462619719305 1.029104101211927 Q -0.9131648852745269 1.031375172630412 -0.8839384120313357 1.057256438797916 Q -0.8547119387881446 1.08313770496542 -0.8414320963705836 1.1234859645192388 Q -0.8281522539530227 1.163834224073057 -0.8304577355445149 1.2112228943567849 Q -0.8325911662709704 1.2550750967088913 -0.8423518657081338 1.2808320373268018 Q -0.8521125651452972 1.3065889779447126 -0.8621676360926966 1.3238239853537246 Q -0.8728267701073984 1.3389027018307562 -0.8732396921834866 1.3473902248666478 Q -0.8737902549516041 1.3587069222478365 -0.8428757981913793 1.3644647313781055 L -0.8436672321705482 1.3807324838635642 Q -0.8605734578963167 1.3784920525387394 -0.8831896475721904 1.377037280209342 Q -0.9058058372480642 1.3755825078799448 -0.9422142518572617 1.3734567371769044 Q -0.9786226664664592 1.3713309664738638 -1.0344988597860785 1.3686125628062835 L -1.0337074258069094 1.3523448103208247 Q -0.9868884084174767 1.3517867073940124 -0.9455824390031938 1.3406803609949354 Q -0.904276469588911 1.3295740145958583 -0.8781964024067778 1.30354756757763 Q -0.8521163352246446 1.277521120559402 -0.8499140841521743 1.232254331034647 Q -0.8481247551557923 1.1954750645457837 -0.866690209344608 1.1690490105939033 Q -0.8852556635334239 1.142622956642023 -0.9248641043675844 1.1406959869536115 Q -0.9687163067196907 1.1385625562271562 -0.9988069242321332 1.166875274845979 Q -1.0288975417445756 1.1951879934648018 -1.0615822373750052 1.2403897327228892 Q -1.0851256166824037 1.2725658159169033 -1.108462534951758 1.3004981375929718 Q -1.1317994532211124 1.3284304592690401 -1.1609342459127643 1.3443827452136914 Q -1.1900690386044162 1.3603350311583429 -1.2289701858522524 1.3584424716429386 Q -1.273529681790683 1.3562746307434759 -1.3010911515870855 1.332601270767463 Q -1.328652621383488 1.3089279107914502 -1.3406727224069335 1.2718312927221058 Q -1.3526928234303788 1.2347346746527612 -1.3506970333959525 1.193711646645952 M -1.2504878588879338 0.6136864817682687 L -0.778277916233415 0.5577102860907408 Q -0.7511175550348963 0.5544736815055743 -0.7387670983230606 0.5448599568136819 Q -0.726416641611225 0.5352462321217895 -0.7232562746197205 0.5258229953583626 L -0.7095419922157123 0.52935821374594 Q -0.7162162480374792 0.5495761155131944 -0.7237179223324235 0.5772591569216214 Q -0.7312195966273678 0.6049421983300485 -0.7384667943219013 0.6330564772582652 Q -0.7465977966133293 0.6645993267874838 -0.7535021372477626 0.6928019861753898 Q -0.760406477882196 0.7210046455632959 -0.763277311706888 0.7378153062868633 L -0.776991594110896 0.734280087899286 Q -0.7693482154629746 0.6989551459303076 -0.7775905119144663 0.6869582110572297 Q -0.7858328083659578 0.6749612761841518 -0.8243394468837558 0.6796607516998376 L -1.1732458690713519 0.7140383246227335 L -1.1878927396477428 0.6970996865552757 L -0.9432176077939699 0.8713255568997686 Q -0.8974240686417482 0.9036058602994161 -0.8712785516144433 0.9099799181757129 Q -0.8451330345871385 0.9163539760520096 -0.8316336318993401 0.9022831095788146 Q -0.8181342292115419 0.8882122431056195 -0.8096923641959864 0.8611372001363611 L -0.7959780817919783 0.8646724185239384 Q -0.8031826203718817 0.886947462651794 -0.8088283050133479 0.9074305057981168 Q -0.8144739896548141 0.9279135489444396 -0.819953578155559 0.9491706866706521 Q -0.8238423183818941 0.9642563973150611 -0.8269462992496818 0.9777162031186584 Q -0.8300502801174695 0.9911760089222558 -0.8313302656677517 1.0018152425640197 L -0.8450445480717598 0.9982800241764422 Q -0.8440754252456052 0.9831729839747182 -0.8559581097838794 0.9640217721845954 Q -0.8678407943221538 0.9448705603944725 -0.9018430916262199 0.9207487133044263 L -1.2626843623250754 0.6610007560620966 Q -1.2591704734948133 0.650206091058269 -1.2559003964863042 0.6375203798345616 Q -1.2526303194777952 0.624834668610854 -1.2504878588879338 0.6136864817682687 M -0.9487432358068418 0.6402796013321221 L -0.9350289534028337 0.6438148197196994 L -0.987703707377736 0.8481576275394204 L -0.9996503805879555 0.837765267949839 L -0.9487432358068418 0.6402796013321221 M -0.969664572035334 -0.06261146909269255 L -0.9569447110020158 -0.056383753123107394 Q -0.9580712611035662 -0.039589433800144125 -0.9483793185994425 -0.016709869952127976 Q -0.9386873760953187 0.006169693895888173 -0.9130625536627789 0.04079233246041347 L -0.7340530682523082 0.2774533078565117 L -0.7486882007808332 0.3073449812848094 L -1.0969374689963174 0.3213373046331145 Q -1.124166177125585 0.3221980624148062 -1.1356771947718591 0.32799471788069007 Q -1.1471882124181334 0.33379137334657394 -1.1506134562014052 0.34078729691489895 L -1.1639693102863893 0.33424819514683457 Q -1.1536539145724516 0.3180105401472928 -1.1441434262641268 0.30019612397329365 Q -1.1346329379558022 0.2823817077992945 -1.1240458208075075 0.2607579440426536 Q -1.1103448456744203 0.23277424976935362 -1.0954181595294772 0.19987152543667341 Q -1.080491473384534 0.16696880110399315 -1.068685255951737 0.1396343213370665 L -1.0553294018667532 0.14617342310513082 Q -1.0631140468287343 0.16207324939677858 -1.066797790591656 0.17603865362401377 Q -1.0704815343545775 0.19000405785124896 -1.0662946936999194 0.19836155314860843 Q -1.0621078530452612 0.2067190484459679 -1.0437433832751943 0.20624900519099987 L -0.8012025394090357 0.20042338576547986 L -0.7854157770952563 0.2325946023062932 L -0.8849936015467362 0.10263045769949874 Q -0.9192638267229492 0.05667893729735379 -0.9445610773450533 0.042322136930539545 Q -0.9698583279671574 0.02796533656372524 -0.9879943868370941 0.0368259287528212 Q -1.0061304457070306 0.045686520941917275 -1.019533256496346 0.07145085026174025 L -1.032253117529664 0.0652231342921552 Q -1.0210300073297036 0.04391075633399355 -1.01105244032366 0.025142350582495476 Q -1.0010748733176165 0.006373944830997402 -0.9914219135647596 -0.013341839770645736 Q -0.984571425998216 -0.027333686907295762 -0.9791353959795365 -0.040046937213260136 Q -0.9736993659608568 -0.05276018751922462 -0.969664572035334 -0.06261146909269255 M -0.8124315787234947 0.18309884502850982 L -0.6527973227553516 0.2612566804468029 Q -0.6299015728953788 0.2724665691920561 -0.6167410760737566 0.2745735517805202 Q -0.6035805792521344 0.27668053436898427 -0.5947824481664707 0.26837296033320523 Q -0.5859843170808072 0.26006538629742626 -0.5747479854261393 0.24033638024107568 L -0.5620281243928211 0.24656409621066078 Q -0.5717075270550929 0.26311313700868183 -0.5852594200162942 0.28998714880524334 Q -0.5988113129774955 0.3168611606018048 -0.6118895165136241 0.343572868771773 Q -0.6265246490421491 0.37346454220007075 -0.6392848560524449 0.40033194326927846 Q -0.6520450630627407 0.4271993443384863 -0.658246336122911 0.44308594917542665 L -0.6709661971562292 0.4368582332058415 Q -0.6622738377082248 0.41588368395557396 -0.6611076232425521 0.40383948033804384 Q -0.6599414087768796 0.39179527672051373 -0.66967666181523 0.3826923705637247 Q -0.6794119148535804 0.3735894644069356 -0.7023076647135531 0.3623795756616824 L -0.8326862403050644 0.2985454869734351 L -0.766164106634083 0.26252001098421485 L -0.8124315787234947 0.18309884502850982 M -0.759245364088363 -0.34718541493427213 L -0.3041219402932487 -0.20942390529777938 Q -0.2779375514246966 -0.20151576966065432 -0.2627711465460882 -0.20538069482170862 Q -0.2476047416674798 -0.20924561998276298 -0.24093599858457404 -0.2166153673539275 L -0.22978420099277613 -0.2078851484920477 Q -0.2439947090447756 -0.19203047399053885 -0.2619521971798771 -0.16966633933869502 Q -0.2799096853149786 -0.14730220468685123 -0.2978066339818322 -0.12444101962366555 Q -0.3178861373641557 -0.09879188516253029 -0.3355042910912144 -0.07571244462779758 Q -0.353122444818273 -0.05263300409306487 -0.3624835276933489 -0.03837782509671939 L -0.37363532528514687 -0.04710804395859919 Q -0.35248844694653314 -0.07641814970387181 -0.3552381923484077 -0.09071153269629229 Q -0.35798793775028226 -0.10500491568871267 -0.3951552404712467 -0.11611517619470824 L -0.7286413948065265 -0.22430248520313106 L -0.735281534700172 -0.24568838755619293 L -0.5808256057328596 0.011923607606691089 Q -0.551786261049839 0.0598379340241634 -0.530379590153876 0.07614655492194006 Q -0.508972919257913 0.09245517581971671 -0.49096919324919364 0.08496591644132807 Q -0.4729654672404743 0.07747665706293942 -0.45438984975753494 0.056046083765531565 L -0.443238052165737 0.06477630262741135 Q -0.4587580930470184 0.08230374676768994 -0.4721322162796331 0.09881318768383983 Q -0.4855063395122477 0.11532262859998971 -0.49903817874816137 0.13260791486727647 Q -0.5086414194962291 0.1448748922182542 -0.516874587946767 0.15596615034180414 Q -0.5251077563973048 0.1670574084653541 -0.5305402407845349 0.17629427854539054 L -0.5416920383763328 0.16756405968351074 Q -0.5347556680897186 0.15410862843974696 -0.5379769945722185 0.1318018993976075 Q -0.5411983210547183 0.10949517035546803 -0.5626990346271887 0.0737776810139108 L -0.7893646191618482 -0.3087117132425693 Q -0.7818228541927545 -0.3171966403729136 -0.7737474017455157 -0.3275120531453267 Q -0.7656719492982769 -0.3378274659177398 -0.759245364088363 -0.34718541493427213 M -0.4933866688848476 -0.2020090885199013 L -0.48223487129304976 -0.1932788696580215 L -0.6123151323350586 -0.02711708554023251 L -0.6191018204959167 -0.04142320319801124 L -0.4933866688848476 -0.2020090885199013 M -0.1546368532507576 -0.9105071816763239 L -0.1458159431595905 -0.8994269805920341 Q -0.16178008287622087 -0.8830974842293088 -0.1651311749366733 -0.869115630478694 Q -0.16848226699712576 -0.8551337767280791 -0.15962109367222993 -0.8377497549892168 Q -0.15075992034733404 -0.8203657332503547 -0.12914869062397466 -0.7932192405938445 L 0.11695470091958715 -0.4840816303421575 Q 0.10986553476445488 -0.47934309434167166 0.10294040908677371 -0.4738300255346923 Q 0.09601528340909254 -0.46831695672771284 0.08870018815464797 -0.4615883096096814 L -0.3943152028815368 -0.5748800904493265 L -0.2249537291311287 -0.3621402296309614 Q -0.20069622638041923 -0.33166967664916425 -0.18436132367066083 -0.31797265307718686 Q -0.16802642096090242 -0.3042756295052094 -0.15115614604252586 -0.30639193667097453 Q -0.13428587112414936 -0.30850824383673964 -0.10770420121591989 -0.32514419576623477 L -0.0988832911247528 -0.3140639946819449 Q -0.11029157316394488 -0.30679215020376516 -0.12768640759687333 -0.29339674458956344 Q -0.14508124202980177 -0.2800013389753617 -0.16003951349359308 -0.2680931103522861 Q -0.1727817447405264 -0.257949063747444 -0.18585746328939506 -0.2470869666109362 Q -0.19893318183826372 -0.23622486947442847 -0.2069152516965789 -0.2280601212930658 L -0.215736161787746 -0.23914032237735566 Q -0.20021306757567398 -0.25602382879429547 -0.19664145276294234 -0.26972867751780305 Q -0.1930698379502107 -0.28343352624131063 -0.20215153402738575 -0.30109455300728016 Q -0.2112332301045608 -0.31875557977324964 -0.2324034143233618 -0.3453480623755453 L -0.43087389137462134 -0.594652586772067 Q -0.4471925750432804 -0.6151509587780033 -0.45795792667123136 -0.622420384451686 Q -0.46872327829918226 -0.6296898101253686 -0.4807312399733507 -0.62601362465255 Q -0.4927392016475191 -0.6223374391797314 -0.5103545588327267 -0.6092190385926368 L -0.5191754689238939 -0.6202992396769267 Q -0.5098702625519036 -0.6268019576956458 -0.49613297574619747 -0.6368330397508319 Q -0.48239568894049123 -0.6468641218060178 -0.46965345769355793 -0.6570081684108601 Q -0.4563572163924101 -0.6675932605202606 -0.4446100407042496 -0.6778502716747589 Q -0.43286286501608906 -0.6881072828292571 -0.4233317295447866 -0.6966001119655221 L 0.0014488671105571949 -0.6030219263692921 L -0.13659837581620776 -0.7764270733384284 Q -0.16085587856691724 -0.8068976263202254 -0.17719078127667565 -0.8205946498922029 Q -0.1935256839864341 -0.8342916734641803 -0.2106164816570898 -0.8324523713255224 Q -0.22770727932774548 -0.8306130691868646 -0.2538479037314166 -0.8134231072031549 L -0.26266881382258367 -0.8245033082874448 Q -0.25170157728794995 -0.832329162819839 -0.23408622010274238 -0.8454475634069336 Q -0.2164708629175347 -0.858565963994028 -0.2015125914537434 -0.8704741926171036 Q -0.18821635015259558 -0.8810592847265041 -0.1756381593831134 -0.89197786413784 Q -0.1630599686136311 -0.9028964435491758 -0.1546368532507576 -0.9105071816763239 M 0.3920661740524815 -1.1883426484246793 Q 0.4050265969178974 -1.1545148849641143 0.4183684737889128 -1.1240055122295922 Q 0.43171035065992824 -1.0934961394950702 0.43931727289892775 -1.0775105238566756 Q 0.44601136446924733 -1.0634431820948884 0.45273632688598275 -1.0509589664737327 Q 0.4594612893027181 -1.0384747508525767 0.46436059038209365 -1.0298270829846357 L 0.4496538239947706 -1.022828714524756 Q 0.4138637712631596 -1.0716719528368026 0.3832883003490937 -1.0955489756938366 Q 0.3527128294350279 -1.1194259985508705 0.3247347159308315 -1.1221887891293147 Q 0.2967566024266351 -1.1249515797077592 0.2673430696519889 -1.110954842788 L 0.2526363032646658 -1.1039564743281205 L 0.4263784072034149 -0.738845013147186 Q 0.4385494827858142 -0.7132680281257545 0.450070129894068 -0.7030658891762986 Q 0.46159077700232176 -0.6928637502268427 0.4782753431717848 -0.6957058586207396 Q 0.49495990934124773 -0.6985479670146366 0.5233988697543823 -0.71129672552974 L 0.529484407545582 -0.6985082330190242 Q 0.5093579672644126 -0.6897150740682007 0.4761233221597596 -0.6746842388813974 Q 0.4428886770551066 -0.6596534036945941 0.4070808980251025 -0.6426138978792352 Q 0.3719125436206342 -0.6258786689534362 0.34088501385894054 -0.6103296767394614 Q 0.309857484097247 -0.5947806845254866 0.29097902222073335 -0.5850129532131514 L 0.28489348442953377 -0.5978014457238671 Q 0.3133633156890842 -0.612133330379602 0.32609228229426745 -0.6232879589054642 Q 0.33882124889945064 -0.6344425874313264 0.3378511081125373 -0.649665295058522 Q 0.336880967325624 -0.6648880026857176 0.32470989174322473 -0.690464987707149 L 0.15096778780447562 -1.0555764488880834 L 0.1369004460426883 -1.048882357317764 Q 0.10748691326804209 -1.0348856203980048 0.09198415223580494 -1.011432001329482 Q 0.07648139120356778 -0.9879783822609589 0.07589262933436797 -0.9496636425730336 Q 0.07530386746516814 -0.9113489028851084 0.08965775981812238 -0.8515208257024869 L 0.07495099343079928 -0.8445224572426073 Q 0.07196996622803112 -0.8540829557792282 0.06620414074959935 -0.867023586734724 Q 0.060438315271167664 -0.8799642176902197 0.05374422370084808 -0.894031559452007 Q 0.04613730146184852 -0.9100171750904017 0.030877150714225754 -0.9396137171562438 Q 0.015616999966602985 -0.9692102592220857 -0.0024588199030992075 -1.000603807566171 Q 0.027258989761106966 -1.0139611198603944 0.06241190874236735 -1.0299047857158774 Q 0.09756482772362776 -1.0458484515713606 0.13273318212809607 -1.0625836804971596 Q 0.16790153653256434 -1.0793189094229585 0.196036220056139 -1.0927070925635978 Q 0.2248103282052494 -1.1063995525937969 0.25965897029694984 -1.122982643074816 Q 0.2945076123886502 -1.139565733555835 0.32937168990355853 -1.1569403871071695 Q 0.36423576741846686 -1.1743150406585041 0.3920661740524815 -1.1883426484246793 M 0.7496717470601847 -1.283959090426353 L 1.0175717013908239 -0.8910912005524745 Q 1.0329957184705292 -0.8685022535473641 1.04722941961967 -0.8619938562761942 Q 1.061463120768811 -0.8554854590050242 1.0712801154035265 -0.8570384969834892 L 1.074484128229235 -0.8432430769928747 Q 1.0534705969607423 -0.8398165997533736 1.025454771159105 -0.8336733592810794 Q 0.9974389453574679 -0.8275301188087854 0.9691583343767081 -0.8209618925160832 Q 0.9374288683982945 -0.8135926630169539 0.9092283577381775 -0.8066795512244863 Q 0.8810278470780604 -0.7997664394320189 0.8647937443718937 -0.7945420820421073 L 0.8615897315461853 -0.8083375020327218 Q 0.8964476512396816 -0.8178872767373397 0.9032764497934225 -0.8307414358874191 Q 0.9101052483471632 -0.8435955950374986 0.8881395956509923 -0.8755699031878572 L 0.6963852275330487 -1.1690793089511244 L 0.7046358888511809 -1.189896966482061 L 0.6632301508715364 -0.892397153192509 Q 0.6557714103397969 -0.8368684812712434 0.6622039202084082 -0.8107372836097184 Q 0.6686364300770196 -0.7846060859481935 0.6873536427231102 -0.7791389928453788 Q 0.7060708553692008 -0.773671899742564 0.7339820966330007 -0.7787003833949193 L 0.7371861094587091 -0.7649049634043047 Q 0.7141032651916243 -0.7609978842409474 0.6933300348850597 -0.7565367505021502 Q 0.6725568045784952 -0.752075616763353 0.6511739035930426 -0.747109396883505 Q 0.6359989416033667 -0.7435849827752258 0.6226285074331601 -0.7401161847703946 Q 0.6092580732629537 -0.7366473867655636 0.5992319095525636 -0.7328648351472209 L 0.5960278967268552 -0.7466602551378355 Q 0.6098722851518588 -0.7527835526029522 0.6213626323919702 -0.7721726997004381 Q 0.6328529796320815 -0.7915618467979241 0.6385271353515287 -0.8328634652391079 L 0.7020775480925644 -1.272905246177659 Q 0.7132740847263415 -1.274778685438695 0.72603484821766 -1.2777423973024753 Q 0.7387956117089785 -1.2807061091662555 0.7496717470601847 -1.283959090426353 M 0.8655603876497824 -1.0040897735143655 L 0.8687644004754909 -0.9902943535237508 L 0.663212642615334 -0.9425545624206959 L 0.666906339784933 -0.9579519888241647 L 0.8655603876497824 -1.0040897735143655 M 1.5739175701430075 -1.343134147614093 L 1.5738320815827906 -1.3289718030832316 Q 1.5511552326213687 -1.3262761158734064 1.539771926646544 -1.3174930413897914 Q 1.528388620671719 -1.3087099669061768 1.5243785663694391 -1.2896143111435734 Q 1.5203685120671593 -1.27051865538097 1.5201590650946277 -1.235820911280359 L 1.517773934264574 -0.8406914988693225 Q 1.5092808019740678 -0.8414509092319957 1.5004293366422794 -0.8415043395821313 Q 1.4915778713104908 -0.8415577699322669 1.481659955710877 -0.8409094946978758 L 1.1766880147971488 -1.2322290710532764 L 1.1750466344409827 -0.960312056060735 Q 1.174811540900386 -0.9213656086008657 1.1789341486333245 -0.9004505038497799 Q 1.1830567563662628 -0.879535399098694 1.1975197291602604 -0.8705963079926832 Q 1.2119827019542577 -0.8616572168866723 1.2431184877820989 -0.8579285559214795 L 1.243032999221882 -0.843766211390618 Q 1.2295873207735852 -0.8452636599759104 1.2076378239647552 -0.8457502258575182 Q 1.1856883271559253 -0.846236791739126 1.1665691620392622 -0.846352201295419 Q 1.1502824658287714 -0.8464505131396686 1.1332855151777321 -0.8461990407986574 Q 1.116288564526693 -0.8459475684576462 1.104950140045982 -0.8445997248527336 L 1.105035628606199 -0.8587620693835951 Q 1.1277167519956317 -0.8621658738199633 1.139097920756451 -0.8705948896903067 Q 1.1504790895172705 -0.87902390556065 1.1544912810335557 -0.898473619936525 Q 1.158503472549841 -0.9179233343123999 1.1587086450943618 -0.9519129611864676 L 1.160632137699244 -1.270565713130852 Q 1.1607902915356454 -1.2967660505129457 1.1569704492798483 -1.3091816113315093 Q 1.1531506070240511 -1.3215971721500728 1.141494456568161 -1.3262704621847818 Q 1.1298383061122708 -1.330943752219491 1.1078909465174462 -1.3317843767143702 L 1.107976435077663 -1.3459467212452316 Q 1.1193020362743415 -1.345170213170515 1.1362925752833646 -1.3443595096717116 Q 1.1532831142923876 -1.3435488061729082 1.1695698105028782 -1.3434504943286587 Q 1.1865646239399121 -1.3433479080563984 1.2021474773518706 -1.3439619878667026 Q 1.2177303307638292 -1.344576067677007 1.2304807152696153 -1.3452072451993549 L 1.502483179780611 -1.0057811244981087 L 1.5038210757480068 -1.2274218164060917 Q 1.5040561692886034 -1.266368263865961 1.499933561555665 -1.2872833686170468 Q 1.4958109538227267 -1.3081984733681327 1.4813501182427347 -1.317491623087415 Q 1.4668892826627427 -1.3267847728066975 1.4357492224068906 -1.3298053165453472 L 1.4358347109671077 -1.3439676610762086 Q 1.4492846638434151 -1.3431783297174595 1.4712320234382397 -1.34233770522258 Q 1.4931793830330642 -1.3414970807277007 1.5122985481497273 -1.3413816711714077 Q 1.529293361586761 -1.3412790848991474 1.5459383908385342 -1.3418867530674354 Q 1.5625834200903075 -1.3424944212357235 1.5739175701430075 -1.343134147614093 M 2.2438335786602996 -1.1912090439539211 Q 2.289209078029534 -1.1750919446165236 2.3133991013452184 -1.1522218010941185 Q 2.3375891246609024 -1.1293516575717135 2.353877437843906 -1.103276365506407 Q 2.359751733408527 -1.0944265907068207 2.3650900274519664 -1.0925304613730091 Q 2.377768475805135 -1.088027154205207 2.3959931663413006 -1.1266422625306434 L 2.4113407617161884 -1.1211908906959356 Q 2.400762557702998 -1.0956407395676215 2.386940873694251 -1.0588433408079876 Q 2.3731191896855037 -1.0220459420483536 2.351313702346672 -0.9606555605488012 L 2.335966106971784 -0.9661069323835091 Q 2.3455160696873607 -1.0078032508763892 2.346387631152953 -1.0409342459105537 Q 2.3472591926185453 -1.0740652409447184 2.3288195264920244 -1.1046620476208067 Q 2.3182560161964147 -1.1256980309971292 2.297648546546096 -1.1427868327365065 Q 2.2770410768957774 -1.1598756344758836 2.2530187537003004 -1.1684082164780352 Q 2.216317982151655 -1.181444105647989 2.183538837938185 -1.1716700636205672 Q 2.150759693724715 -1.1618960215931455 2.1224637326693716 -1.1351243747452404 Q 2.0941677716140283 -1.1083527278973353 2.071583836295194 -1.0701587864391124 Q 2.0489999009763595 -1.0319648449808898 2.0333568339724146 -0.9879239191225152 Q 1.990693923961657 -0.8678123031451301 2.004052276517144 -0.8006952021914885 Q 2.017410629072631 -0.733578101237847 2.079468297327613 -0.7115355977322887 Q 2.0954831794579314 -0.7058472097308544 2.1089164380560286 -0.705584639262358 Q 2.1223496966541253 -0.7053220687938617 2.131585980297666 -0.7080531850033104 Q 2.1432981565409492 -0.7114078262234395 2.149360276235453 -0.7178965430772514 Q 2.155422395929956 -0.7243852599310633 2.1599257030977586 -0.7370637082842317 L 2.183153287436949 -0.8024578103163635 Q 2.194056031106365 -0.8331530010661398 2.194384244191985 -0.8499445743137611 Q 2.1947124572776056 -0.8667361475613825 2.181928277991959 -0.8772887972728034 Q 2.169144098706312 -0.8878414469842243 2.1413550711449822 -0.8984634127421643 L 2.1460953944795107 -0.9118091478507627 Q 2.1598714001768125 -0.9061645215940777 2.1794378513786317 -0.898838901297933 Q 2.1990043025804513 -0.8915132810017883 2.220238970670845 -0.8835951202888275 Q 2.2414736387612395 -0.8756769595758667 2.259490381157847 -0.869277523074253 Q 2.287516424885904 -0.8593228440717429 2.3111084774926773 -0.8516945649917476 Q 2.3347005300994508 -0.8440662859117524 2.3496178548856355 -0.8395192169992007 L 2.344877531551107 -0.8261734818906024 Q 2.325719470065616 -0.8314753610480827 2.316729306310292 -0.8241479838892385 Q 2.3077391425549676 -0.8168206067303944 2.2944662372182876 -0.779452548426319 L 2.2475370362064537 -0.6473297708511954 L 2.234191301097855 -0.652070094185724 Q 2.2375532891767747 -0.663650985194759 2.2379562486010087 -0.6785373253870792 Q 2.2383592080252432 -0.6934236655793993 2.2283499066937944 -0.6969789080802958 Q 2.223678899405785 -0.6986380212473808 2.2151755451347985 -0.6990282035207301 Q 2.206672190863812 -0.6994183857940793 2.1873390823993235 -0.6957647592194949 Q 2.1576721329471615 -0.6905213355243447 2.126876641557002 -0.6905633404063946 Q 2.096081150166842 -0.6906053452884445 2.066053246172496 -0.701271072791134 Q 1.94927806397226 -0.7427489019682597 1.9110715050671487 -0.8277096149062072 Q 1.8728649461620375 -0.9126703278441548 1.9131576945055309 -1.0261090762672407 Q 1.9401775375123442 -1.1021797663862514 1.9911157296448558 -1.1472106020895851 Q 2.0420539217773674 -1.1922414377929194 2.1075775521810476 -1.204287097709921 Q 2.1731011825847286 -1.216332757626923 2.2438335786602996 -1.1912090439539211 M 2.5843278885557686 -0.4383676343045684 L 2.592355933911856 -0.4500351018389291 Q 2.6118266865024413 -0.4383569760226259 2.623569074136756 -0.43543477999806446 Q 2.635311461771071 -0.43251258397350306 2.645745256163498 -0.4408055922815038 Q 2.656179050555926 -0.44909860058950446 2.6706295321968825 -0.4701000421513537 L 2.869725057027841 -0.7594532370034992 Q 2.8845769409366016 -0.7810380519420664 2.8883929270512287 -0.793454798507556 Q 2.892208913165856 -0.8058715450730456 2.8851923671907365 -0.8162866094404846 Q 2.878175821215617 -0.8267016738079236 2.8604926488051623 -0.8397285174865765 L 2.8685206941612496 -0.8513959850209372 Q 2.883870373064832 -0.8399747504135018 2.908845712684262 -0.8219303783872944 Q 2.933821052303692 -0.8038860063610871 2.9589061075025676 -0.7866257088455 Q 2.9857412828315972 -0.7681612045264998 3.0097693068564824 -0.7524877860571416 Q 3.033797330881367 -0.7368143675877834 3.0487830675671224 -0.7273626842693927 L 3.040755022211035 -0.7156952167350319 Q 3.0216856718882537 -0.7279567159280532 3.009450896431678 -0.7307879263981578 Q 2.997216120975102 -0.7336191368682623 2.9872747144049354 -0.7254171141147185 Q 2.9773333078347695 -0.7172150913611746 2.9624814239260084 -0.6956302764226073 L 2.7633858990950504 -0.40627708157046194 Q 2.7489354174540934 -0.38527564000861264 2.744918730205564 -0.37256720675476407 Q 2.7409020429570354 -0.3598587735009155 2.7478276033776976 -0.3499360969557377 Q 2.75475316379836 -0.3400134204105599 2.7726183073177286 -0.3260018010873845 L 2.7645902619616414 -0.3143343335530238 Q 2.7508087320792995 -0.3255361370015687 2.727382811456121 -0.3420846155360039 Q 2.7039568908329428 -0.3586330940704392 2.677121715503913 -0.37709759838943935 Q 2.6520366603050376 -0.39435789590502646 2.626459217283901 -0.4115272078661567 Q 2.6008817742627643 -0.42869651982728696 2.5843278885557686 -0.4383676343045684 M 2.336977576827322 -0.6085621958536133 L 2.345005622183409 -0.620229663387974 Q 2.3644763747739947 -0.6085515375716708 2.3762187624083095 -0.6056293415471095 Q 2.387961150042624 -0.602707145522548 2.3983949444350516 -0.6110001538305487 Q 2.408828738827479 -0.6192931621385495 2.4232792204684355 -0.6402946037003987 L 2.622374745299394 -0.9296477985525441 Q 2.637226629208155 -0.9512326134911113 2.6410426153227817 -0.963649360056601 Q 2.644858601437409 -0.9760661066220905 2.6378420554622894 -0.9864811709895295 Q 2.6308255094871704 -0.9968962353569686 2.6131423370767157 -1.0099230790356215 L 2.6211703824328025 -1.0215905465699822 Q 2.635936687959667 -1.010570714230351 2.6597452808256614 -0.9933291467397524 Q 2.6835538736916553 -0.9760875792491538 2.7121391691508387 -0.9564188681267406 Q 2.7366408509729965 -0.9395599728789579 2.7609605616862405 -0.9236858532756975 Q 2.785280272399484 -0.9078117336724371 2.8014327558386753 -0.8975572458184375 L 2.793404710482588 -0.8858897782840769 Q 2.7743353601598066 -0.8981512774770981 2.762100584703231 -0.9009824879472027 Q 2.7498658092466552 -0.9038136984173073 2.739924402676489 -0.8956116756637634 Q 2.7299829961063224 -0.8874096529102196 2.7151311121975614 -0.8658248379716522 L 2.5160355873666034 -0.5764716431195068 Q 2.5015851057256464 -0.5554702015576576 2.4975684184771176 -0.542761768303809 Q 2.4935517312285884 -0.5300533350499604 2.5004772916492506 -0.5201306585047826 Q 2.507402852069913 -0.5102079819596048 2.5252679955892816 -0.49619636263642947 L 2.517239950233195 -0.48452889510206876 Q 2.5022916735974166 -0.4965335030862223 2.478574066285879 -0.5132826827545597 Q 2.454856458974342 -0.5300318624228971 2.4303547771521843 -0.5468907576706799 Q 2.401769481693001 -0.5665594687930932 2.3773587854253 -0.5829259762186146 Q 2.3529480891575996 -0.5992924836441362 2.336977576827322 -0.6085621958536133 M 2.574452862152975 -0.7425724009391181 L 2.5824809075090625 -0.7542398684734788 L 2.8129133913126863 -0.5956859726907601 L 2.804885345956599 -0.5840185051563993 L 2.574452862152975 -0.7425724009391181 M 3.345532181522181 -0.41875296258700223 L 3.1295198701712965 0.004867440331886186 Q 3.1171094928239054 0.02924249651172034 3.1182337648978753 0.044853181818461985 Q 3.1193580369718457 0.06046386712520363 3.125433486022465 0.06832988450720318 L 3.1148701566521733 0.07776362096310868 Q 3.101775884905344 0.06097525326208031 3.0829366518163925 0.03934866787584157 Q 3.0640974187274415 0.01772208248960294 3.044758258992835 -0.003932742719495397 Q 3.0230606651442526 -0.02822840027116677 3.003457422175389 -0.049647382068867485 Q 2.983854179206525 -0.0710663638665682 2.9714773625224096 -0.0827989854653279 L 2.9820406918927014 -0.09223272192123341 Q 3.00715305279229 -0.06623960567257967 3.021707405162002 -0.0664205041009594 Q 3.0362617575317143 -0.06660140252933913 3.053764510970053 -0.10122075986219004 L 3.2191751589541426 -0.41034343210947377 L 3.2413978499458374 -0.41310029306888824 L 2.9605475313491763 -0.3065936144561777 Q 2.9082559816408287 -0.286477450687736 2.8884214992486714 -0.2682892681872583 Q 2.8685870168565146 -0.2501010856867805 2.872777253278654 -0.2310573183346941 Q 2.8769674897007937 -0.2120135509826076 2.8947786296755758 -0.1899435185964333 L 2.8842153003052835 -0.18050978214052782 Q 2.8697059680900687 -0.19888264924709997 2.855819446640468 -0.21496348671393542 Q 2.841932925190867 -0.23104432418077087 2.8273106336842133 -0.2474174847047233 Q 2.8169335235827173 -0.2590371470120444 2.8074715473039524 -0.2691005497366813 Q 2.798009571025187 -0.27916395246131825 2.7898779357462287 -0.2861430758434466 L 2.8004412651165205 -0.2955768122993521 Q 2.8124593542692797 -0.28637206375172675 2.8349842931466114 -0.28560119836869696 Q 2.857509232023943 -0.28483033298566723 2.8964638110709466 -0.29968161240060087 L 3.3129857907493068 -0.4551964489145092 Q 3.3200046134455166 -0.4462740985954804 3.3287308196672294 -0.4365030189279604 Q 3.3374570258889418 -0.4267319392604404 3.345532181522181 -0.41875296258700223 M 3.1556640094046915 -0.18272947057137467 L 3.1451006800343997 -0.17329573411546917 L 3.0045380068414076 -0.33068934173281817 L 3.019818204439652 -0.33484141350357777 L 3.1556640094046915 -0.18272947057137467 M 3.755062402843352 0.20234866291807777 Q 3.722327464802536 0.2178636225718527 3.6929303925401418 0.23350458307608363 Q 3.6635333202777476 0.24914554358031446 3.6481777413565926 0.25795527509068694 Q 3.634664831905976 0.26570783881981463 3.622732758029467 0.2733698471849588 Q 3.6108006841529576 0.281031855550103 3.6025539492175254 0.2865795283527578 L 3.5944489962279826 0.272452395745295 Q 3.6404055132364257 0.23302412736090433 3.661868911041725 0.20070858625784224 Q 3.683332308847024 0.16839304515478018 3.683942648708265 0.14028547798350377 Q 3.6845529885695054 0.1121779108122273 3.66834308259042 0.08392364559730178 L 3.6602381296008772 0.06979651298983905 L 3.3095167070416935 0.27101078068674567 Q 3.2849477807678453 0.2851063511033416 3.275658626344448 0.2973750331448323 Q 3.2663694719210503 0.30964371518632305 3.2704819743910925 0.3260613779864826 Q 3.2745944768611346 0.3424790407866422 3.289485381162544 0.3698572489482902 L 3.27720091802562 0.37690503415658816 Q 3.2668910741096044 0.35751172703394085 3.249357250355083 0.3255268451959463 Q 3.2318234266005623 0.29354196335795174 3.212089628017328 0.25914546657456417 Q 3.1927082186945084 0.2253631929480228 3.174826921777332 0.19561864752297356 Q 3.156945624860156 0.16587410209792433 3.1457597238908632 0.147799796652953 L 3.1580441870277873 0.14075201144465507 Q 3.174515926903304 0.16803966424231948 3.1866133304123467 0.1798762666570854 Q 3.1987107339213896 0.1917128690718513 3.213814311141633 0.189578869118323 Q 3.2289178883618765 0.1874448691647947 3.2534868146357248 0.17334929874819877 L 3.604208237194909 -0.027864968948707852 L 3.596455673465781 -0.041377878399324386 Q 3.5802457674866957 -0.06963214361424991 3.555672957917242 -0.08329175110851555 Q 3.531100148347788 -0.09695135860278117 3.4928529829907897 -0.09460183523696758 Q 3.454605817633791 -0.09225231187115401 3.3960538426143954 -0.07335524155911943 L 3.3879488896248526 -0.0874823741665822 Q 3.397252792341529 -0.09118737749869832 3.409713450108661 -0.09792805112857317 Q 3.4221741078757923 -0.10466872475844805 3.435687017326409 -0.1124212884875758 Q 3.4510425962475644 -0.12123101999794825 3.479382500728714 -0.13871464997271774 Q 3.507722405209863 -0.15619827994748725 3.53763822916736 -0.17662702485603188 Q 3.553233911989599 -0.14802037038069146 3.5718249035253646 -0.11419281907215828 Q 3.5904158950611302 -0.08036526776362513 3.60979730438395 -0.04658299413708372 Q 3.6291787137067693 -0.012800720510542346 3.644683841165025 0.014225098390690749 Q 3.6605413578836954 0.041865140448770044 3.679746572576307 0.0753403024968883 Q 3.698951787268919 0.1088154645450066 3.7189474197485843 0.14224534891113305 Q 3.73894305222825 0.17567523327725953 3.755062402843352 0.20234866291807777 M 3.877805533811162 0.5515740537868494 L 3.506625857573183 0.8487965501968311 Q 3.485285495246148 0.8659064819741817 3.4798871541286878 0.8805971387539846 Q 3.4744888130112273 0.8952877955337875 3.476789686007896 0.9049568851534874 L 3.4632804086800655 0.9092087949578593 Q 3.458253471706291 0.8885196879856763 3.4499810862856335 0.86105710365171 Q 3.441708700864976 0.8335945193177436 3.432992285766014 0.805900500795691 Q 3.4232128932159585 0.7748291629416806 3.4141587461838006 0.7472414421647372 Q 3.405104599151642 0.7196537213877938 3.398651379653613 0.7038677795748343 L 3.4121606569814436 0.6996158697704624 Q 3.424353954715375 0.7336393359759932 3.4376936837623946 0.7394628680738906 Q 3.4510334128094144 0.745286400171788 3.4812301601910107 0.7209347528428092 L 3.759179624725911 0.507248992604603 L 3.7805684040760252 0.5138798594539671 L 3.4807701984717534 0.4953971658890177 Q 3.4248331986326597 0.4922162439062308 3.399271869454891 0.5006326044677332 Q 3.3737105402771217 0.5090489650292355 3.3696940698460827 0.5281301369405832 Q 3.365677599415043 0.5472113088519309 3.372830491291004 0.5746550544880293 L 3.359321213963173 0.5789069642924012 Q 3.3536564905187425 0.5561914657210436 3.3476163577453804 0.5358212519841884 Q 3.3415762249720187 0.5154510382473332 3.334985764775242 0.49451165838919575 Q 3.330308663990433 0.4796514533285821 3.325825319997975 0.46658620567905656 Q 3.3213419760055163 0.453520958029531 3.3168021159194545 0.44381419101409525 L 3.330311393247285 0.4395622812097234 Q 3.3374777540074416 0.45289664044307115 3.357690523719256 0.4628671492286571 Q 3.37790329343107 0.47283765801424316 3.4195183113771948 0.4753296472464426 L 3.863136444986079 0.504967047005834 Q 3.865862508963185 0.515987064358317 3.869795525532229 0.5284831458865603 Q 3.873728542101273 0.5409792274148035 3.877805533811162 0.5515740537868494 M 3.607641466509238 0.6885718213065032 L 3.5941321891814075 0.6928237311108751 L 3.5307787330962666 0.4915354989261992 L 3.546413965326283 0.49403822778574263 L 3.607641466509238 0.6885718213065032 M 4.000037050585217 1.3653592598587232 L 3.9866174263728507 1.3663269964398275 Q 3.9800434821580133 1.3440820586120383 3.9633521930174864 1.319371857793713 Q 3.94666090387696 1.2946616569753877 3.9114276511808863 1.2688036912289273 L 3.7436418458746914 1.1474291460837962 L 3.805218558049979 1.1841668338777742 L 3.5553049119191855 1.3711616146216137 Q 3.5397731727218713 1.3822212293762732 3.5306999646336896 1.3942350346148693 Q 3.5216267565455075 1.4062488398534652 3.5158880675447204 1.4251218711867586 L 3.501762147321177 1.4261405412721315 Q 3.5013920666941285 1.4013183138723928 3.4995550740161647 1.3709221186396399 Q 3.4977180813382014 1.340525923406887 3.4959354086887986 1.3158055630156857 Q 3.4948658050991566 1.3009733467809648 3.4929846519655086 1.2798099331977837 Q 3.4911034988318606 1.2586465196146028 3.487347965613148 1.22625877010899 L 3.5014738858366914 1.2252401000236168 Q 3.5049747515340606 1.2540963694733438 3.5121174984265275 1.2596160172777977 Q 3.519260245318994 1.2651356650822514 3.535396413518948 1.252612524800969 L 3.69399061802663 1.1382302296771443 Q 3.709522357223944 1.1271706149224847 3.7170844928055264 1.118815623500446 Q 3.724646628387109 1.1104606320784076 3.727264691890451 1.1024621751862498 Q 3.729882755393793 1.094463718294092 3.7296722483281344 1.081699456588634 L 3.7445044645628554 1.0806298529989922 Q 3.7474518347618533 1.1116559439865195 3.765453848916197 1.134851685773953 Q 3.7834558630705404 1.1580474275613868 3.818740049270883 1.1846116893190244 L 3.871892142816313 1.2226668751754035 Q 3.905610936481495 1.2472141159080468 3.9288966246224994 1.250149701091967 Q 3.952182312763504 1.2530852862758874 3.9639024376314547 1.2383957109810968 Q 3.975622562499405 1.2237061356863062 3.974291518339836 1.1954033617349502 L 3.9877111425522025 1.1944356251538457 Q 3.9888893861989656 1.22061951107167 3.9898893625807883 1.2443313609503743 Q 3.990889338962611 1.2680432108290782 3.993130413150432 1.2991202353208742 Q 3.9960845563980136 1.3400854039691505 4.000037050585217 1.3653592598587232 M 3.9824140581082625 1.1209808399914192 L 3.968288137884719 1.1219995100767923 Q 3.9659519697369445 1.0994489712233912 3.96052064284386 1.088126154816714 Q 3.955089315950776 1.0768033384100368 3.942474468233832 1.0741631946788524 Q 3.929859620516888 1.0715230509476679 3.9037266681033325 1.0734075906056082 L 3.5534038465594517 1.0986706087228606 Q 3.527977190157073 1.100504214876532 3.5155439962293618 1.1053056460148425 Q 3.50311080230165 1.1101070771531527 3.4996879623028856 1.1217134143575995 Q 3.496265122304121 1.1333197515620461 3.4964824024183634 1.1560230909282532 L 3.48235648219482 1.1570417610136263 Q 3.4823938696019203 1.1378699017033052 3.4806587439324943 1.1088862984929064 Q 3.478923618263068 1.079902695282508 3.4767844110837847 1.0502382628130664 Q 3.474339602878889 1.0163360542765618 3.4718217809418825 0.986343940553666 Q 3.4693039590048764 0.9563518268307702 3.4666180293758058 0.938796293559878 L 3.4807439495993493 0.937777623474505 Q 3.4837864137583003 0.9602772288236374 3.488839125893662 0.9712723639768603 Q 3.4938918380290236 0.9822674991300833 3.5068853005036904 0.9852353241147219 Q 3.5198787629783572 0.9882031490993607 3.545305419380736 0.9863695429456891 L 3.8956282409246166 0.9611065248284367 Q 3.921761193338172 0.9592219851704965 3.9338412392602953 0.9544460207843205 Q 3.945921285182418 0.9496700563981446 3.949671806434637 0.9376851044359749 Q 3.9534223276868556 0.9257001524738052 3.952549685065705 0.903754042623044 L 3.9666756052892485 0.9027353725376709 Q 3.9672426468847872 0.9204437063213691 3.968701024805028 0.9505122203006678 Q 3.970159402725269 0.9805807342799666 3.972604210930164 1.0144829428164712 Q 3.9747434181094476 1.0441473752859127 3.97753798779564 1.0730545782399084 Q 3.9803325574818316 1.101961781193904 3.9824140581082625 1.1209808399914192" fill="#114b1e" fill-rule="nonzero"></path></g><g transform="matrix(1,0,0,1,0,0)" clip-path="url(#SvgjsClipPath28984)"><g clip-path="url(#SvgjsClipPath289712f7b384a-bc59-4b7a-803c-537a70eacd58)"><path d=" M 0.851737012305674 0.19443936578344556 L 0.19732288835084633 0.8489063984092348 L 0.19732288835084633 1.7743848708674739 L 0.851737012305674 2.4287989948223014 L 1.7772154847639132 2.4287989948223014 L 2.4316296087187403 1.7743848708674739 L 2.4316296087187403 0.8489063984092348 L 1.7772154847639132 0.19443936578344556 Z M 1.7981540912969198 0.14388513067974973 L 0.8307984057726677 0.14388513067974973 L 0.14682156191811202 0.8280207005471899 L 0.14682156191811202 1.7953234774004805 L 0.8307984057726677 2.479353229925997 L 1.7981540912969198 2.479353229925997 L 2.482183843822437 1.7953234774004805 L 2.482183843822437 0.8280207005471899 Z" fill="url(#gradient-58e487b0-e3cf-463e-bdcb-ec9f14bfc997_0)" transform="matrix(1,0,0,1,0,0)" fill-rule="evenodd"></path></g><g clip-path="url(#SvgjsClipPath289712f7b384a-bc59-4b7a-803c-537a70eacd58)"><path d=" M 0.9000955375644685 0.3223328506650874 L 0.31413200666605784 0.9082963815634981 L 0.31413200666605784 1.7370445763364084 L 0.9000955375644685 2.3230081072348194 L 1.7287908236664171 2.3230081072348194 L 2.314754354564828 1.7370445763364084 L 2.314754354564828 0.9083492902344595 L 1.7287908236664171 0.32238575933604896 Z M 1.749782338870385 0.27177861556139155 L 0.8791569310314619 0.27177861556139155 L 0.26353809005914075 0.8874106837014532 L 0.26353809005914075 1.758036091540376 L 0.8791569310314621 2.373668159680438 L 1.749782338870385 2.373668159680438 L 2.365414407010447 1.758036091540376 L 2.365414407010447 0.8874106837014532 Z" fill="url(#gradient-58e487b0-e3cf-463e-bdcb-ec9f14bfc997_1)" transform="matrix(1,0,0,1,0,0)" fill-rule="evenodd"></path></g><g clip-path="url(#SvgjsClipPath289712f7b384a-bc59-4b7a-803c-537a70eacd58)"><path d=" M 2.199228271520432 0.43796475105140575 L 0.42973745271689534 0.43796475105140575 L 0.42973745271689534 2.2074555698549427 L 2.199228271520432 2.2074555698549427 Z M 0.3791699904454592 0.38741051594771 L 0.3791699904454592 2.258023032126379 L 2.249782506624128 2.258023032126379 L 2.249782506624128 0.38741051594771003 Z" fill="url(#gradient-58e487b0-e3cf-463e-bdcb-ec9f14bfc997_2)" transform="matrix(1,0,0,1,0,0)" fill-rule="evenodd"></path></g><g clip-path="url(#SvgjsClipPath289712f7b384a-bc59-4b7a-803c-537a70eacd58)"><path d=" M 2.5740068422760887 1.3227167740370445 L 1.3227167740370445 0.07149284163670222 L 0.07149284163670222 1.3227167740370445 L 1.3227167740370445 2.5740068422760887 Z M 1.3227167740370445 0 L 0 1.3227167740370445 L 1.3227167740370445 2.645433548074089 L 2.645433548074089 1.3227167740370445 Z" fill="url(#gradient-58e487b0-e3cf-463e-bdcb-ec9f14bfc997_3)" transform="matrix(1,0,0,1,0,0)" fill-rule="evenodd"></path></g><path d=" M 1.0479351047343124 1.1739627876475953 C 1.0464047139278365 1.1632500520022648 1.0426552564519709 1.1531494726795244 1.0366867323067153 1.1436610496793742 C 1.0307182081614594 1.1341726266792242 1.0230662541290805 1.1259850358645787 1.013730870209578 1.1190982772354374 C 1.0043954862900755 1.1122115186062964 0.9938357897253924 1.1067786312433072 0.9820517805155287 1.10279961514647 C 0.9702677713056649 1.098820599049633 0.9579481253135347 1.0968310910012145 0.9450928425391378 1.0968310910012145 C 0.9334618724099216 1.0968310910012145 0.9225960976839434 1.0980554036463952 0.912495518361203 1.1005040289367565 C 0.9023949390384627 1.1029526542271175 0.8935951919012267 1.1067021117029834 0.8860962769494952 1.1117524013643536 C 0.8785973619977637 1.1168026910257238 0.8726288378525081 1.123306851953246 0.8681907045137283 1.1312648841469202 C 0.8637525711749483 1.1392229163405945 0.8615335045055584 1.1487113393407444 0.8615335045055584 1.1597301531473703 C 0.8615335045055584 1.1735036704056525 0.8645177665781862 1.1844459646719545 0.870486290723442 1.1925570359462765 C 0.8764548148686976 1.2006681072205982 0.8841067689010766 1.207325307228768 0.8934421528205791 1.2125286359707859 C 0.9027775367400817 1.2177319647128035 0.9131076746837933 1.2218640198902884 0.9244325666517144 1.22492480150324 C 0.9357574586196353 1.2279855831161917 0.9467762724262612 1.2313524428904383 0.9574890080715919 1.2350253808259803 L 1.0837462496058463 1.2772641670847127 C 1.1011927047996706 1.283385730310616 1.1175678864289618 1.2918028797462329 1.1328717944937199 1.3025156153915636 C 1.148175702558478 1.3132283510368943 1.1614135830344938 1.3262366728919386 1.1725854359217673 1.3415405809566967 C 1.1837572888090406 1.3568444890214548 1.1925570359462765 1.3744439832959268 1.198984677333475 1.3943390637801123 C 1.2054123187206733 1.4142341442642978 1.2086261394142725 1.4365778500388449 1.2086261394142725 1.461370181103753 C 1.2086261394142725 1.4950387788462207 1.2024280566480456 1.5257996340563844 1.1900318911155914 1.5536527467342442 C 1.1776357255831373 1.581505859412104 1.160265789929637 1.6053799559931268 1.13792208415509 1.6252750364773125 C 1.1155783783805433 1.6451701169614978 1.0887965392672165 1.6606270641069036 1.05757656681511 1.6716458779135295 C 1.0263565943630035 1.6826646917201553 0.99176976213665 1.6881740986234683 0.9538160701360499 1.6881740986234683 C 0.9271872701033708 1.6881740986234683 0.9020123413368437 1.6851898365508404 0.8782912838364686 1.6792213124055846 C 0.8545702263360935 1.673252788260329 0.8329151964244608 1.6646060802037406 0.8133261941015704 1.6532811882358196 C 0.79373719177868 1.6419562962678986 0.7765968147461508 1.628412337630588 0.7619050630039831 1.612649312323887 C 0.7472133112618153 1.596886287017186 0.7357353802132467 1.5790572341217428 0.7274712698582773 1.5591621536375573 L 0.6801821939381747 1.5591621536375573 L 0.6801821939381747 1.4209678638127916 L 0.8463826355214479 1.4209678638127916 L 0.8463826355214479 1.4494331328132415 C 0.8463826355214479 1.4632066500715237 0.8486017021908379 1.4759088937652731 0.8530398355296177 1.4875398638944892 C 0.8574779688683976 1.4991708340237055 0.8641351688765673 1.5092714133464458 0.8730114355541271 1.5178416018627103 C 0.8818877022316868 1.526411790378975 0.8930595551189602 1.5330689903871446 0.9065269942159473 1.5378132018872197 C 0.9199944333129344 1.5425574133872948 0.9357574586196353 1.5449295191373322 0.9538160701360499 1.5449295191373322 C 0.9813631046526146 1.5449295191373322 1.0023294587013332 1.5385783972904576 1.016715132282206 1.5258761535967085 C 1.0311008058630784 1.513173909902959 1.0382936426535148 1.4954978960881635 1.0382936426535148 1.4728481121523216 C 1.0382936426535148 1.4612171420231053 1.0357684978228296 1.4514991604019838 1.0307182081614594 1.4436941672889572 C 1.0256679185000892 1.4358891741759305 1.0191637575725672 1.4293084937080847 1.0112057253788929 1.4239521258854193 C 1.0032476931852186 1.4185957580627537 0.994371426507659 1.4140811051836504 0.9845769253462138 1.4104081672481084 C 0.9747824241847685 1.4067352293125666 0.9651409621039709 1.4033683695383194 0.9556525391038209 1.400307587925368 L 0.8505146906989326 1.366332912021605 C 0.8306196102147471 1.3602113487957017 0.8114132055934756 1.3516411602794371 0.7928954768351183 1.3406223464728113 C 0.774377748076761 1.3296035326661855 0.7580025664474698 1.315830015407903 0.7437699319472447 1.2993017946979646 C 0.7295372974470197 1.2827735739880257 0.7182124054790986 1.2634141302861064 0.7097952560434817 1.2412234635922073 C 0.7013781066078647 1.2190327968983081 0.6971695318900563 1.1937048290511334 0.6971695318900563 1.1652395600506833 C 0.6971695318900563 1.1321831186308056 0.7032910951159594 1.1027230956061462 0.715534221567766 1.076859490976705 C 0.7277773480195725 1.050995886347264 0.7449177250521015 1.0291878173549835 0.7669553526653533 1.0114352839998642 C 0.788992980278605 0.9936827506447448 0.8151626630693414 0.9802153115477577 0.8454644010375624 0.9710329667089027 C 0.8757661390057835 0.9618506218700479 0.9089756195063087 0.9572594494506204 0.9450928425391378 0.9572594494506204 C 0.9735581115395879 0.9572594494506204 0.9998808334109719 0.9605497896845434 1.0240610081532897 0.9671304701523893 C 1.0482411828956075 0.9737111506202354 1.0698962128072402 0.9825108977574712 1.0890260978881878 0.9935297115640971 C 1.1081559829691356 1.004548525370723 1.1243781255177792 1.0171742495241485 1.1376925255341188 1.0314068840243735 C 1.1510069255504582 1.0456395185245986 1.1611840244135225 1.06040778980709 1.1682238221233112 1.0757116978718484 L 1.2141355463175856 1.0757116978718484 L 1.2141355463175856 1.2143651049385569 L 1.0479351047343124 1.2143651049385569 L 1.0479351047343124 1.1739627876475953 M 1.7894094504718434 1.673941464123243 L 1.7894094504718434 1.5545709812181299 C 1.7704326044715433 1.5879335007993025 1.751914875713186 1.6124197537029157 1.7338562641967712 1.6280297399289687 C 1.7157976526803567 1.6436397261550222 1.6953669354139045 1.6561889307681237 1.672564112397415 1.6656773537682739 C 1.6497612893809253 1.6751657767684238 1.619229992791733 1.6797569491878512 1.5809702226298374 1.679450871026556 C 1.5619933766295375 1.679144792865261 1.5430165306292376 1.676925726195871 1.5240396846289375 1.6727936710183864 C 1.5050628386286373 1.6686616158409016 1.4866981489509277 1.6628461307762936 1.4689456155958083 1.6553472158245621 C 1.4511930822406889 1.6478483008728306 1.4338231465871885 1.6388189951146233 1.416835808635307 1.6282592985499402 C 1.3998484706834253 1.6176996019852572 1.3844680430783436 1.6055329950737742 1.3706945258200611 1.5917594778154922 C 1.3367198499162982 1.557478723750434 1.3103206085045902 1.5177650823223865 1.291496801584938 1.47261855353135 C 1.2726729946652853 1.4274720247403136 1.2632610912054592 1.3782699603121162 1.2632610912054592 1.325012360246758 C 1.2632610912054592 1.2922619969881757 1.267240107302296 1.2605829072941264 1.2751981394959704 1.2299750911646101 C 1.2831561716896447 1.1993672750350939 1.294328024576918 1.170748966953996 1.3087136981577907 1.144120166921317 C 1.3230993717386634 1.117491366888638 1.3404693073921639 1.0932346726059963 1.360823505118292 1.071350084073392 C 1.3811777028444205 1.049465495540788 1.4038274867802625 1.0307182081614594 1.4287728569258182 1.0151082219354062 C 1.4537182270713738 0.9994982357093528 1.4805765857250244 0.9874081483381939 1.5093479328867696 0.9788379598219293 C 1.538119280048515 0.9702677713056648 1.5682679789360883 0.9659826770475325 1.5997940295494901 0.9659826770475325 C 1.6359112525823194 0.9659826770475325 1.6672842641150736 0.9708034080879313 1.6939130641477527 0.9804448701687289 C 1.7205418641804318 0.9900863322495266 1.7491601722615293 1.0080684242256173 1.7797679883910458 1.0343911460970012 L 1.8826102505862201 1.0343911460970012 L 1.8826102505862201 1.1895727738736488 L 1.7407430228259122 1.1895727738736488 C 1.726663427406335 1.167841224421692 1.7134255469303192 1.1520781991149913 1.7010293813978652 1.142283697953546 C 1.6886332158654112 1.132489196792101 1.6751657767684238 1.124378125517779 1.6606270641069036 1.1179504841305805 C 1.6460883514453835 1.1115228427433823 1.625810673259579 1.108309022049783 1.5997940295494901 1.108309022049783 C 1.5740834640006964 1.108309022049783 1.550209367419674 1.1141245071143913 1.5281717398064223 1.1257554772436074 C 1.5061341121931706 1.1373864473728235 1.4870807466525466 1.1530729531392006 1.4710116431845506 1.1728149945427386 C 1.4549425397165545 1.1925570359462765 1.442316815563129 1.2158189762047087 1.4331344707242741 1.2426008153180357 C 1.4239521258854193 1.2693826544313622 1.4193609534659921 1.296853169407603 1.4193609534659921 1.325012360246758 C 1.4193609534659921 1.352865472924618 1.4234930086434767 1.3793412338766493 1.431757118998446 1.4044396431028527 C 1.4400212293534154 1.429538052329056 1.452570433966517 1.452111316724574 1.4694047328377509 1.4721594362894073 C 1.4862390317089849 1.4922075558542405 1.5058280340318753 1.5075879834593224 1.5281717398064223 1.5183007191046531 C 1.5505154455809689 1.5290134547499838 1.5743895421619916 1.534369822572649 1.5997940295494901 1.534369822572649 C 1.6322383146467772 1.534369822572649 1.66055054456658 1.5248813995724992 1.6847307193088978 1.505904553572199 C 1.7089108940512157 1.486927707571899 1.7263573492450397 1.4610641029424576 1.7370700848903704 1.4283137396838752 L 1.6043852019689175 1.4283137396838752 L 1.6043852019689175 1.3025156153915636 L 1.9266855058127237 1.3025156153915636 L 1.9266855058127237 1.673941464123243 L 1.7894094504718434 1.673941464123243" fill="#1c3423" transform="matrix(1,0,0,1,0,0)" fill-rule="nonzero"></path></g><g><path d=" M -0.6570644070305034 1.3227167740370442 A 1.9797811810675476 1.9797811810675476 0 0 1 3.3024979551045917 1.3227167740370442 A 1.9797811810675476 1.9797811810675476 0 0 1 -0.6570644070305036 1.3227167740370442 Z M -0.6070644070305034 1.3227167740370445 A 1.9297811810675478 1.9297811810675478 0 0 0 3.2524979551045923 1.3227167740370445 A 1.9297811810675478 1.9297811810675478 0 0 0 -0.6070644070305034 1.3227167740370445 Z" fill="#337551" fill-rule="nonzero"></path></g><g><path d=" M -1.661329650613748 1.3227167740370445 A 2.9840464246507925 2.9840464246507925 0 0 1 4.306763198687837 1.3227167740370445 A 2.9840464246507925 2.9840464246507925 0 0 1 -1.661329650613748 1.3227167740370445 Z M -1.6113296506137482 1.3227167740370445 A 2.9340464246507927 2.9340464246507927 0 0 0 4.256763198687837 1.3227167740370445 A 2.9340464246507927 2.9340464246507927 0 0 0 -1.6113296506137482 1.3227167740370445 Z" fill="#0e0904" fill-rule="nonzero"></path></g><g transform="matrix(-0.42966233623069555,-0.9029896327338319,0.9029896327338319,-0.42966233623069555,-3.2754620478178076,2.090511221479437)"><g clip-path="url(#SvgjsClipPath28985)"><path d=" M -0.9773370164368189 2.1642641646162932 C -0.9647159524801774 2.1642641646162932 -0.9580110122532115 2.156375999643392 -0.9580110122532115 2.1453325686813307 C -0.9580110122532115 2.139416444951655 -0.9593914411234692 2.134289137719269 -0.9647159524801774 2.1236401150058533 C -0.9722097092044333 2.108849805681664 -0.973590138074691 2.1041169066979233 -0.9749705669449487 2.0905098221196687 C -0.9653075648531448 2.0914958427412813 -0.9570249916315988 2.0936650881088292 -0.9501228472803105 2.0968203540979897 C -0.9323744760912832 2.104905723195213 -0.9272471688588976 2.107074968562761 -0.9197534121346417 2.107074968562761 C -0.9094987976698703 2.107074968562761 -0.9012162244483243 2.1001728242114726 -0.9012162244483243 2.0877489643791534 C -0.9012162244483243 2.075522308671157 -0.9093015935455477 2.068422960195546 -0.9197534121346417 2.068422960195546 C -0.9256695358643174 2.068422960195546 -0.9329660884642508 2.0705922055630936 -0.9418402740587644 2.0747334921738667 L -0.9501228472803105 2.0786775746603174 C -0.9578138081288889 2.0822272488981226 -0.966096381350435 2.0843964942656705 -0.9749705669449487 2.085382514887283 C -0.973590138074691 2.073550267427932 -0.9704348720855306 2.0630984488388378 -0.9655047689774674 2.0536326508713567 C -0.9605746658694043 2.044364057028198 -0.9580110122532115 2.036475892055297 -0.9580110122532115 2.030165360076976 C -0.9580110122532115 2.0199107456122047 -0.9639271359828873 2.011628172390659 -0.9773370164368189 2.011628172390659 C -0.9909441010150731 2.011628172390659 -0.9970574288690714 2.0197135414878824 -0.9970574288690714 2.030165360076976 C -0.9970574288690714 2.0366730961796193 -0.9954797958744912 2.0408143827903924 -0.9864084061556551 2.060534795222645 C -0.9832531401664947 2.0674369395739336 -0.9810838947989469 2.0757195127954793 -0.9800978741773343 2.085382514887283 C -0.989760876269138 2.0843964942656705 -0.9996210824852643 2.081438432400833 -1.010072901074358 2.0761139210441244 C -1.0203276798758996 2.0709866138117388 -1.0288074572217683 2.068422960195546 -1.0353151933244116 2.068422960195546 C -1.0455698077891828 2.068422960195546 -1.053852381010729 2.0753251045468346 -1.053852381010729 2.0877489643791534 C -1.053852381010729 2.1001728242114726 -1.0457670119135054 2.107074968562761 -1.0353151933244116 2.107074968562761 C -1.0282158448488006 2.107074968562761 -1.0238773541137052 2.105497335568181 -1.0049455938419725 2.0968203540979897 C -0.998043449490684 2.0936650881088292 -0.989760876269138 2.0914958427412813 -0.9800978741773343 2.0905098221196687 C -0.981478303047592 2.1023420695790205 -0.9846335690367524 2.112793888168114 -0.9895636721448154 2.1222596861355956 C -0.9944937752528786 2.1315282799787543 -0.9970574288690714 2.1392192408273325 -0.9970574288690714 2.1453325686813307 C -0.9970574288690714 2.15617879551907 -0.9903524886421056 2.1642641646162932 -0.9773370164368189 2.1642641646162932 Z" fill="#000000" transform="matrix(1,0,0,1,0,0)" fill-rule="nonzero"></path></g></g><g transform="matrix(0.42966233623069555,-0.9029896327338319,-0.9029896327338319,-0.42966233623069555,3.944231045100202,6.244721274927127)"><g clip-path="url(#SvgjsClipPath28986)"><path d=" M 3.623169902862661 2.1642641646162932 C 3.6357909668193025 2.1642641646162932 3.6424959070462686 2.156375999643392 3.6424959070462686 2.1453325686813307 C 3.6424959070462686 2.139416444951655 3.641115478176011 2.134289137719269 3.6357909668193025 2.1236401150058533 C 3.6282972100950466 2.108849805681664 3.626916781224789 2.1041169066979233 3.625536352354531 2.0905098221196687 C 3.635199354446335 2.0914958427412813 3.643481927667881 2.0936650881088292 3.6503840720191696 2.0968203540979897 C 3.6681324432081968 2.104905723195213 3.6732597504405824 2.107074968562761 3.6807535071648383 2.107074968562761 C 3.6910081216296096 2.107074968562761 3.6992906948511557 2.1001728242114726 3.6992906948511557 2.0877489643791534 C 3.6992906948511557 2.075522308671157 3.691205325753932 2.068422960195546 3.6807535071648383 2.068422960195546 C 3.6748373834351624 2.068422960195546 3.667540830835229 2.0705922055630936 3.6586666452407153 2.0747334921738667 L 3.6503840720191696 2.0786775746603174 C 3.642693111170591 2.0822272488981226 3.634410537949045 2.0843964942656705 3.625536352354531 2.085382514887283 C 3.626916781224789 2.073550267427932 3.6300720472139494 2.0630984488388378 3.6350021503220122 2.0536326508713567 C 3.6399322534300755 2.044364057028198 3.6424959070462686 2.036475892055297 3.6424959070462686 2.030165360076976 C 3.6424959070462686 2.0199107456122047 3.6365797833165927 2.011628172390659 3.623169902862661 2.011628172390659 C 3.609562818284407 2.011628172390659 3.6034494904304086 2.0197135414878824 3.6034494904304086 2.030165360076976 C 3.6034494904304086 2.0366730961796193 3.6050271234249887 2.0408143827903924 3.6140985131438246 2.060534795222645 C 3.617253779132985 2.0674369395739336 3.619423024500533 2.0757195127954793 3.6204090451221456 2.085382514887283 C 3.6107460430303417 2.0843964942656705 3.6008858368142156 2.081438432400833 3.590434018225122 2.0761139210441244 C 3.5801792394235803 2.0709866138117388 3.571699462077712 2.068422960195546 3.5651917259750685 2.068422960195546 C 3.5549371115102972 2.068422960195546 3.546654538288751 2.0753251045468346 3.546654538288751 2.0877489643791534 C 3.546654538288751 2.1001728242114726 3.5547399073859745 2.107074968562761 3.5651917259750685 2.107074968562761 C 3.5722910744506793 2.107074968562761 3.5766295651857747 2.105497335568181 3.5955613254575076 2.0968203540979897 C 3.6024634698087956 2.0936650881088292 3.6107460430303417 2.0914958427412813 3.6204090451221456 2.0905098221196687 C 3.619028616251888 2.1023420695790205 3.6158733502627274 2.112793888168114 3.6109432471546645 2.1222596861355956 C 3.6060131440466012 2.1315282799787543 3.6034494904304086 2.1392192408273325 3.6034494904304086 2.1453325686813307 C 3.6034494904304086 2.15617879551907 3.6101544306573743 2.1642641646162932 3.623169902862661 2.1642641646162932 Z" fill="#000000" transform="matrix(1,0,0,1,0,0)" fill-rule="nonzero"></path></g></g></g><defs><clipPath id="SvgjsClipPath28984"><path d=" M 0 0 h 2.645433548074089 v 2.645433548074089 h -2.645433548074089 Z"></path></clipPath><clipPath id="SvgjsClipPath289712f7b384a-bc59-4b7a-803c-537a70eacd58"><path d=" M 0 0 L 2.645433548074089 0 L 2.645433548074089 2.645433548074089 L 0 2.645433548074089 Z"></path></clipPath><linearGradient id="gradient-58e487b0-e3cf-463e-bdcb-ec9f14bfc997_0" x1="0" x2="1" y1="0" y2="1"><stop stop-color="#a3bd27" offset="0"></stop><stop stop-color="#3b3d31" offset="1"></stop></linearGradient><linearGradient id="gradient-58e487b0-e3cf-463e-bdcb-ec9f14bfc997_1" x1="0" x2="1" y1="0" y2="1"><stop stop-color="#9eb628" offset="0"></stop><stop stop-color="#404330" offset="1"></stop></linearGradient><linearGradient id="gradient-58e487b0-e3cf-463e-bdcb-ec9f14bfc997_2" x1="0" x2="1" y1="0" y2="1"><stop stop-color="#99b028" offset="0"></stop><stop stop-color="#454930" offset="1"></stop></linearGradient><linearGradient id="gradient-58e487b0-e3cf-463e-bdcb-ec9f14bfc997_3" x1="0" x2="1" y1="0" y2="1"><stop stop-color="#aac527" offset="0"></stop><stop stop-color="#343432" offset="1"></stop></linearGradient><clipPath id="SvgjsClipPath28985"><path d=" M -1.092572424800835 1.9646278560937904 h 0.23007147837627914 v 0.23007147837627914 h -0.23007147837627914 Z"></path></clipPath><clipPath id="SvgjsClipPath28986"><path d=" M 3.507934494498645 1.9646278560937904 h 0.23007147837627914 v 0.23007147837627914 h -0.23007147837627914 Z"></path></clipPath></defs></svg>