<?xml version="1.0" encoding="UTF-8"?>
<!DOCTYPE svg PUBLIC "-//W3C//DTD SVG 1.1//EN" "http://www.w3.org/Graphics/SVG/1.1/DTD/svg11.dtd">
<svg xmlns="http://www.w3.org/2000/svg" version="1.1" width="200px" height="200px" style="shape-rendering:geometricPrecision; text-rendering:geometricPrecision; image-rendering:optimizeQuality; fill-rule:evenodd; clip-rule:evenodd" xmlns:xlink="http://www.w3.org/1999/xlink">
<g><path style="opacity:1" fill="#4c7ac9" d="M 149.5,-0.5 C 166.167,-0.5 182.833,-0.5 199.5,-0.5C 199.5,6.16667 199.5,12.8333 199.5,19.5C 197.201,20.7778 194.868,22.1111 192.5,23.5C 191.449,22.1152 190.116,21.1152 188.5,20.5C 183.303,22.3512 177.97,22.8512 172.5,22C 171.057,20.9328 169.724,19.7662 168.5,18.5C 167.833,19.1667 167.167,19.8333 166.5,20.5C 164.076,19.5771 162.076,18.0771 160.5,16C 157.447,15.8214 154.447,15.3214 151.5,14.5C 152.544,13.3774 153.21,12.0441 153.5,10.5C 152.148,6.79036 150.815,3.12369 149.5,-0.5 Z"/></g>
<g><path style="opacity:1" fill="#6523c0" d="M -0.5,-0.5 C 10.1667,-0.5 20.8333,-0.5 31.5,-0.5C 31.1734,4.21369 31.5067,8.88035 32.5,13.5C 35.9349,15.837 37.2682,19.1703 36.5,23.5C 37.5,23.5 38.5,23.5 39.5,23.5C 39.5,26.1667 39.5,28.8333 39.5,31.5C 41.1667,31.5 42.8333,31.5 44.5,31.5C 44.5,34.1667 44.5,36.8333 44.5,39.5C 45.5,39.5 46.5,39.5 47.5,39.5C 47.5,42.1667 47.5,44.8333 47.5,47.5C 48.8333,47.5 50.1667,47.5 51.5,47.5C 51.5,52.8333 51.5,58.1667 51.5,63.5C 53.5,63.5 55.5,63.5 57.5,63.5C 57.5,66.1667 57.5,68.8333 57.5,71.5C 58.5,71.5 59.5,71.5 60.5,71.5C 60.0343,77.491 59.701,83.491 59.5,89.5C 58.1667,89.5 56.8333,89.5 55.5,89.5C 55.6602,87.8008 55.4935,86.1341 55,84.5C 54.5014,88.1516 54.3347,91.8183 54.5,95.5C 50.8979,95.678 50.8979,96.678 54.5,98.5C 55.4656,96.604 55.7989,94.604 55.5,92.5C 58.1667,92.5 60.8333,92.5 63.5,92.5C 62.5315,83.0106 64.0315,82.3439 68,90.5C 68.6708,91.2524 69.5041,91.5858 70.5,91.5C 71.1342,92.9468 72.3009,93.6134 74,93.5C 76.2605,93.1354 78.4272,92.4687 80.5,91.5C 80.8333,91.8333 81.1667,92.1667 81.5,92.5C 80.7573,93.1818 80.0906,93.8485 79.5,94.5C 79.5,95.1667 79.1667,95.5 78.5,95.5C 76.8002,95.6261 75.3002,96.2927 74,97.5C 72.2973,96.2998 70.7973,96.6332 69.5,98.5C 70.1667,98.8333 70.8333,99.1667 71.5,99.5C 70.675,100.386 69.675,100.719 68.5,100.5C 68.5,102.5 68.5,104.5 68.5,106.5C 67.5,106.5 66.5,106.5 65.5,106.5C 65.5,108.167 65.5,109.833 65.5,111.5C 64.7784,111.918 64.2784,112.584 64,113.5C 63.8706,110.997 62.8706,108.997 61,107.5C 60.6667,108.833 60.3333,110.167 60,111.5C 57.693,106.528 56.193,106.528 55.5,111.5C 52.8333,111.5 50.1667,111.5 47.5,111.5C 47.7683,108.881 47.435,106.381 46.5,104C 41.2448,103.207 36.5782,101.04 32.5,97.5C 32.0424,94.3082 30.3757,92.1415 27.5,91C 21.7446,84.2433 15.078,78.5767 7.5,74C 9.29094,73.5848 10.6243,72.5848 11.5,71C 9.59474,69.13 7.42807,67.63 5,66.5C 6.6901,62.2343 4.85676,59.5677 -0.5,58.5C -0.5,38.8333 -0.5,19.1667 -0.5,-0.5 Z"/></g>
<g><path style="opacity:1" fill="#6129bf" d="M 31.5,-0.5 C 39.1667,-0.5 46.8333,-0.5 54.5,-0.5C 57.3901,4.29313 58.7234,9.62646 58.5,15.5C 60.1667,15.5 61.8333,15.5 63.5,15.5C 63.3347,19.1817 63.5014,22.8484 64,26.5C 66.3333,27.5 68,29.1667 69,31.5C 70.3677,36.3699 71.8677,41.2032 73.5,46C 72.5089,50.1575 70.1756,53.3241 66.5,55.5C 65.2199,57.7244 65.5532,59.7244 67.5,61.5C 69.1019,59.5729 70.4353,57.4062 71.5,55C 73.8333,54.3333 76.1667,54.3333 78.5,55C 75.863,58.7746 74.1964,62.9413 73.5,67.5C 73.5,67.8333 73.5,68.1667 73.5,68.5C 72.3709,70.6282 72.2042,72.9615 73,75.5C 74.0413,80.1288 75.5413,84.4621 77.5,88.5C 72.2063,88.6822 72.2063,89.1822 77.5,90C 75.6233,92.682 73.2899,93.182 70.5,91.5C 69.5041,91.5858 68.6708,91.2524 68,90.5C 64.0315,82.3439 62.5315,83.0106 63.5,92.5C 60.8333,92.5 58.1667,92.5 55.5,92.5C 55.7989,94.604 55.4656,96.604 54.5,98.5C 50.8979,96.678 50.8979,95.678 54.5,95.5C 54.3347,91.8183 54.5014,88.1516 55,84.5C 55.4935,86.1341 55.6602,87.8008 55.5,89.5C 56.8333,89.5 58.1667,89.5 59.5,89.5C 59.701,83.491 60.0343,77.491 60.5,71.5C 59.5,71.5 58.5,71.5 57.5,71.5C 57.5,68.8333 57.5,66.1667 57.5,63.5C 55.5,63.5 53.5,63.5 51.5,63.5C 51.5,58.1667 51.5,52.8333 51.5,47.5C 50.1667,47.5 48.8333,47.5 47.5,47.5C 47.5,44.8333 47.5,42.1667 47.5,39.5C 46.5,39.5 45.5,39.5 44.5,39.5C 44.5,36.8333 44.5,34.1667 44.5,31.5C 42.8333,31.5 41.1667,31.5 39.5,31.5C 39.5,28.8333 39.5,26.1667 39.5,23.5C 38.5,23.5 37.5,23.5 36.5,23.5C 37.2682,19.1703 35.9349,15.837 32.5,13.5C 31.5067,8.88035 31.1734,4.21369 31.5,-0.5 Z"/></g>
<g><path style="opacity:1" fill="#4d73c8" d="M 136.5,-0.5 C 140.833,-0.5 145.167,-0.5 149.5,-0.5C 150.815,3.12369 152.148,6.79036 153.5,10.5C 153.21,12.0441 152.544,13.3774 151.5,14.5C 154.447,15.3214 157.447,15.8214 160.5,16C 162.076,18.0771 164.076,19.5771 166.5,20.5C 167.167,19.8333 167.833,19.1667 168.5,18.5C 169.724,19.7662 171.057,20.9328 172.5,22C 177.97,22.8512 183.303,22.3512 188.5,20.5C 190.116,21.1152 191.449,22.1152 192.5,23.5C 194.868,22.1111 197.201,20.7778 199.5,19.5C 199.5,22.8333 199.5,26.1667 199.5,29.5C 198.778,29.0825 198.278,28.4158 198,27.5C 194.273,29.1311 190.44,30.4645 186.5,31.5C 177.362,30.1652 168.362,28.4986 159.5,26.5C 154.283,22.9685 149.116,19.3018 144,15.5C 141.671,10.0295 139.171,4.69619 136.5,-0.5 Z"/></g>
<g><path style="opacity:1" fill="#5f36c0" d="M 54.5,-0.5 C 61.1667,-0.5 67.8333,-0.5 74.5,-0.5C 77.747,10.394 81.4136,21.0607 85.5,31.5C 83.4727,31.3379 81.4727,31.5045 79.5,32C 82.9651,36.4668 86.7984,40.6334 91,44.5C 92.128,46.3453 92.628,48.3453 92.5,50.5C 90.3037,50.41 88.137,50.0767 86,49.5C 82.9875,50.0445 82.8208,51.2112 85.5,53C 84.2068,53.49 82.8734,53.6567 81.5,53.5C 81.1692,55.3224 80.5025,56.9891 79.5,58.5C 77.2267,61.3984 75.2267,64.3984 73.5,67.5C 74.1964,62.9413 75.863,58.7746 78.5,55C 76.1667,54.3333 73.8333,54.3333 71.5,55C 70.4353,57.4062 69.1019,59.5729 67.5,61.5C 65.5532,59.7244 65.2199,57.7244 66.5,55.5C 70.1756,53.3241 72.5089,50.1575 73.5,46C 71.8677,41.2032 70.3677,36.3699 69,31.5C 68,29.1667 66.3333,27.5 64,26.5C 63.5014,22.8484 63.3347,19.1817 63.5,15.5C 61.8333,15.5 60.1667,15.5 58.5,15.5C 58.7234,9.62646 57.3901,4.29313 54.5,-0.5 Z"/></g>
<g><path style="opacity:1" fill="#4c6dc7" d="M 127.5,-0.5 C 130.5,-0.5 133.5,-0.5 136.5,-0.5C 139.171,4.69619 141.671,10.0295 144,15.5C 149.116,19.3018 154.283,22.9685 159.5,26.5C 168.362,28.4986 177.362,30.1652 186.5,31.5C 190.44,30.4645 194.273,29.1311 198,27.5C 198.278,28.4158 198.778,29.0825 199.5,29.5C 199.5,31.8333 199.5,34.1667 199.5,36.5C 196.813,36.3359 194.146,36.5026 191.5,37C 186.246,40.4424 181.079,40.2758 176,36.5C 175.517,37.448 175.351,38.448 175.5,39.5C 170.161,38.3234 164.828,36.8234 159.5,35C 154.716,32.0897 149.716,29.5897 144.5,27.5C 144.261,24.304 142.594,22.4706 139.5,22C 134.651,17.1351 131.817,11.3018 131,4.5C 129.198,3.21075 128.031,1.54408 127.5,-0.5 Z"/></g>
<g><path style="opacity:1" fill="#5456c4" d="M 97.5,-0.5 C 102.167,-0.5 106.833,-0.5 111.5,-0.5C 112.983,5.43324 114.483,11.4332 116,17.5C 123.265,26.8849 131.099,35.7182 139.5,44C 142.733,46.4494 146.4,47.7827 150.5,48C 151.252,48.6708 151.586,49.5041 151.5,50.5C 149.043,51.87 148.377,53.87 149.5,56.5C 152.593,58.3089 155.926,59.3089 159.5,59.5C 158.791,60.404 157.791,60.7373 156.5,60.5C 155.833,62.5 155.167,64.5 154.5,66.5C 152.952,66.1788 152.285,65.1788 152.5,63.5C 148.995,64.1091 146.328,62.9424 144.5,60C 142.153,59.5639 139.819,59.0639 137.5,58.5C 134.03,54.5979 129.697,52.5979 124.5,52.5C 124.5,50.8333 124.5,49.1667 124.5,47.5C 123.5,47.5 122.5,47.5 121.5,47.5C 121.657,46.1266 121.49,44.7932 121,43.5C 115.097,39.386 110.097,34.386 106,28.5C 105.549,24.0574 104.715,19.7241 103.5,15.5C 102.5,15.5 101.5,15.5 100.5,15.5C 98.9011,10.2935 97.9011,4.96015 97.5,-0.5 Z"/></g>
<g><path style="opacity:1" fill="#5d42c1" d="M 74.5,-0.5 C 80.5,-0.5 86.5,-0.5 92.5,-0.5C 94.7018,8.15851 95.8685,17.1585 96,26.5C 98.9678,28.7683 100.634,31.7683 101,35.5C 104.035,38.8702 107.368,41.8702 111,44.5C 111.49,45.7932 111.657,47.1266 111.5,48.5C 108.833,49.5 106.167,50.5 103.5,51.5C 94.4209,50.4333 86.4209,52.7666 79.5,58.5C 80.5025,56.9891 81.1692,55.3224 81.5,53.5C 82.8734,53.6567 84.2068,53.49 85.5,53C 82.8208,51.2112 82.9875,50.0445 86,49.5C 88.137,50.0767 90.3037,50.41 92.5,50.5C 92.628,48.3453 92.128,46.3453 91,44.5C 86.7984,40.6334 82.9651,36.4668 79.5,32C 81.4727,31.5045 83.4727,31.3379 85.5,31.5C 81.4136,21.0607 77.747,10.394 74.5,-0.5 Z"/></g>
<g><path style="opacity:1" fill="#584dc1" d="M 92.5,-0.5 C 94.1667,-0.5 95.8333,-0.5 97.5,-0.5C 97.9011,4.96015 98.9011,10.2935 100.5,15.5C 101.5,15.5 102.5,15.5 103.5,15.5C 104.715,19.7241 105.549,24.0574 106,28.5C 110.097,34.386 115.097,39.386 121,43.5C 121.49,44.7932 121.657,46.1266 121.5,47.5C 122.5,47.5 123.5,47.5 124.5,47.5C 124.5,49.1667 124.5,50.8333 124.5,52.5C 124.5,54.8333 124.5,57.1667 124.5,59.5C 124.095,60.5498 123.429,60.5498 122.5,59.5C 121.416,58.3349 120.583,57.0016 120,55.5C 117.439,57.8585 116.939,60.5252 118.5,63.5C 118.82,66.8984 118.487,70.2317 117.5,73.5C 116.712,74.7701 115.712,75.7701 114.5,76.5C 119.126,64.3454 115.459,56.012 103.5,51.5C 106.167,50.5 108.833,49.5 111.5,48.5C 111.657,47.1266 111.49,45.7932 111,44.5C 107.368,41.8702 104.035,38.8702 101,35.5C 100.634,31.7683 98.9678,28.7683 96,26.5C 95.8685,17.1585 94.7018,8.15851 92.5,-0.5 Z"/></g>
<g><path style="opacity:1" fill="#4766c6" d="M 119.5,-0.5 C 122.167,-0.5 124.833,-0.5 127.5,-0.5C 128.031,1.54408 129.198,3.21075 131,4.5C 131.817,11.3018 134.651,17.1351 139.5,22C 142.594,22.4706 144.261,24.304 144.5,27.5C 149.716,29.5897 154.716,32.0897 159.5,35C 164.828,36.8234 170.161,38.3234 175.5,39.5C 175.351,38.448 175.517,37.448 176,36.5C 181.079,40.2758 186.246,40.4424 191.5,37C 194.146,36.5026 196.813,36.3359 199.5,36.5C 199.5,39.5 199.5,42.5 199.5,45.5C 197.325,45.6822 195.325,46.3489 193.5,47.5C 183.93,47.5504 174.263,47.3838 164.5,47C 163.91,45.7011 162.91,44.8678 161.5,44.5C 158.525,43.8607 155.525,43.3607 152.5,43C 148.551,39.8955 144.218,37.3955 139.5,35.5C 138.487,32.5396 137.154,29.8729 135.5,27.5C 133.178,25.5884 130.512,24.255 127.5,23.5C 126.874,20.6851 125.54,18.1851 123.5,16C 123.957,15.586 124.291,15.086 124.5,14.5C 122.938,11.0265 122.105,7.35979 122,3.5C 120.519,2.52912 119.685,1.19578 119.5,-0.5 Z"/></g>
<g><path style="opacity:1" fill="#4b60c5" d="M 111.5,-0.5 C 114.167,-0.5 116.833,-0.5 119.5,-0.5C 119.685,1.19578 120.519,2.52912 122,3.5C 122.105,7.35979 122.938,11.0265 124.5,14.5C 124.291,15.086 123.957,15.586 123.5,16C 125.54,18.1851 126.874,20.6851 127.5,23.5C 130.512,24.255 133.178,25.5884 135.5,27.5C 137.154,29.8729 138.487,32.5396 139.5,35.5C 144.218,37.3955 148.551,39.8955 152.5,43C 155.525,43.3607 158.525,43.8607 161.5,44.5C 162.91,44.8678 163.91,45.7011 164.5,47C 174.263,47.3838 183.93,47.5504 193.5,47.5C 195.325,46.3489 197.325,45.6822 199.5,45.5C 199.5,47.8333 199.5,50.1667 199.5,52.5C 191.688,52.3822 184.021,53.0489 176.5,54.5C 167.973,54.0983 159.64,52.765 151.5,50.5C 151.586,49.5041 151.252,48.6708 150.5,48C 146.4,47.7827 142.733,46.4494 139.5,44C 131.099,35.7182 123.265,26.8849 116,17.5C 114.483,11.4332 112.983,5.43324 111.5,-0.5 Z"/></g>
<g><path style="opacity:1" fill="#415ac5" d="M 151.5,50.5 C 159.64,52.765 167.973,54.0983 176.5,54.5C 184.021,53.0489 191.688,52.3822 199.5,52.5C 199.5,54.8333 199.5,57.1667 199.5,59.5C 194.333,59.09 189.333,59.7567 184.5,61.5C 176.102,61.8893 167.768,61.2226 159.5,59.5C 155.926,59.3089 152.593,58.3089 149.5,56.5C 148.377,53.87 149.043,51.87 151.5,50.5 Z"/></g>
<g><path style="opacity:1" fill="#3b54c5" d="M 159.5,59.5 C 167.768,61.2226 176.102,61.8893 184.5,61.5C 189.333,59.7567 194.333,59.09 199.5,59.5C 199.5,62.5 199.5,65.5 199.5,68.5C 195.633,69.7295 191.8,69.7295 188,68.5C 187,69.1667 186,69.8333 185,70.5C 183.372,69.9898 181.539,69.9898 179.5,70.5C 175.224,68.6715 170.891,68.3382 166.5,69.5C 162.806,67.492 158.806,66.492 154.5,66.5C 155.167,64.5 155.833,62.5 156.5,60.5C 157.791,60.7373 158.791,60.404 159.5,59.5 Z"/></g>
<g><path style="opacity:1" fill="#5a36c0" d="M 100.5,60.5 C 103.491,60.1663 105.824,61.1663 107.5,63.5C 107.663,65.8568 107.497,68.1902 107,70.5C 105.418,72.2871 104.251,74.2871 103.5,76.5C 102.59,80.6505 99.923,82.9839 95.5,83.5C 92.1042,83.1157 89.1042,81.7823 86.5,79.5C 85.0691,76.6462 84.2358,73.6462 84,70.5C 86.549,69.2273 89.049,68.7273 91.5,69C 94.2258,66.9629 95.2258,64.4629 94.5,61.5C 96.396,60.5344 98.396,60.2011 100.5,60.5 Z"/></g>
<g><path style="opacity:1" fill="#3e4dc3" d="M 124.5,52.5 C 129.697,52.5979 134.03,54.5979 137.5,58.5C 139.819,59.0639 142.153,59.5639 144.5,60C 146.328,62.9424 148.995,64.1091 152.5,63.5C 152.285,65.1788 152.952,66.1788 154.5,66.5C 158.806,66.492 162.806,67.492 166.5,69.5C 170.891,68.3382 175.224,68.6715 179.5,70.5C 181.539,69.9898 183.372,69.9898 185,70.5C 186,69.8333 187,69.1667 188,68.5C 191.8,69.7295 195.633,69.7295 199.5,68.5C 199.5,72.1667 199.5,75.8333 199.5,79.5C 196.843,79.162 194.51,79.8287 192.5,81.5C 190.564,79.0221 188.564,79.0221 186.5,81.5C 185.833,80.8333 185.167,80.1667 184.5,79.5C 180.223,81.9791 175.889,81.9791 171.5,79.5C 167.643,80.0169 163.643,80.0169 159.5,79.5C 159.5,78.5 159.5,77.5 159.5,76.5C 157.076,76.8076 154.743,76.4742 152.5,75.5C 150.155,73.5953 147.488,72.4286 144.5,72C 141.952,69.5584 138.952,67.8917 135.5,67C 134.663,65.9887 134.33,64.8221 134.5,63.5C 132.167,62.8333 129.833,62.1667 127.5,61.5C 127.649,60.448 127.483,59.448 127,58.5C 126.329,59.2524 125.496,59.5858 124.5,59.5C 124.5,57.1667 124.5,54.8333 124.5,52.5 Z"/></g>
<g><path style="opacity:1" fill="#4f3ec0" d="M 127.5,97.5 C 116.989,92.2391 106.322,87.5724 95.5,83.5C 99.923,82.9839 102.59,80.6505 103.5,76.5C 103.5,78.1667 103.5,79.8333 103.5,81.5C 104.5,81.5 105.5,81.5 106.5,81.5C 110.498,81.816 113.165,80.1493 114.5,76.5C 115.712,75.7701 116.712,74.7701 117.5,73.5C 118.487,70.2317 118.82,66.8984 118.5,63.5C 118.343,62.1266 118.51,60.7932 119,59.5C 119.333,59.8333 119.667,60.1667 120,60.5C 122.19,66.8675 124.356,73.2008 126.5,79.5C 127.474,77.2573 127.808,74.924 127.5,72.5C 130.044,72.1043 132.211,72.771 134,74.5C 134.695,76.7221 135.528,78.8887 136.5,81C 135.115,82.5971 134.449,84.4305 134.5,86.5C 133.5,86.5 132.5,86.5 131.5,86.5C 131.5,87.8333 131.5,89.1667 131.5,90.5C 133.124,90.3601 134.29,91.0267 135,92.5C 135.333,91.8333 135.667,91.1667 136,90.5C 136.766,92.9326 138.266,94.766 140.5,96C 138.004,97.5541 135.837,99.3874 134,101.5C 131.941,99.9304 129.774,98.597 127.5,97.5 Z"/></g>
<g><path style="opacity:1" fill="#4046c2" d="M 124.5,59.5 C 125.496,59.5858 126.329,59.2524 127,58.5C 127.483,59.448 127.649,60.448 127.5,61.5C 129.833,62.1667 132.167,62.8333 134.5,63.5C 134.33,64.8221 134.663,65.9887 135.5,67C 138.952,67.8917 141.952,69.5584 144.5,72C 147.488,72.4286 150.155,73.5953 152.5,75.5C 154.743,76.4742 157.076,76.8076 159.5,76.5C 159.5,77.5 159.5,78.5 159.5,79.5C 163.643,80.0169 167.643,80.0169 171.5,79.5C 175.889,81.9791 180.223,81.9791 184.5,79.5C 185.167,80.1667 185.833,80.8333 186.5,81.5C 188.564,79.0221 190.564,79.0221 192.5,81.5C 194.51,79.8287 196.843,79.162 199.5,79.5C 199.5,82.8333 199.5,86.1667 199.5,89.5C 192.256,90.9714 184.923,91.9714 177.5,92.5C 175.301,90.8506 173.468,91.1839 172,93.5C 171.692,92.6919 171.192,92.0253 170.5,91.5C 167.724,93.1298 164.724,93.7965 161.5,93.5C 161.5,92.5 161.5,91.5 161.5,90.5C 159.167,90.5 156.833,90.5 154.5,90.5C 154.5,89.1667 154.5,87.8333 154.5,86.5C 150.837,85.8875 147.17,85.7208 143.5,86C 142.197,89.4684 142.197,92.9684 143.5,96.5C 142.757,97.1818 142.091,97.8485 141.5,98.5C 140.766,99.7079 140.433,101.041 140.5,102.5C 139.167,102.5 137.833,102.5 136.5,102.5C 136.653,105.801 137.653,108.801 139.5,111.5C 137.307,114.836 136.973,118.336 138.5,122C 138.167,122.5 137.833,123 137.5,123.5C 134.31,120.977 132.977,121.977 133.5,126.5C 130.306,126.176 129.306,127.342 130.5,130C 128.82,129.229 127.153,129.395 125.5,130.5C 128.498,127.333 131.331,124 134,120.5C 136.835,115.657 137.168,110.657 135,105.5C 132.295,102.964 129.795,100.297 127.5,97.5C 129.774,98.597 131.941,99.9304 134,101.5C 135.837,99.3874 138.004,97.5541 140.5,96C 138.266,94.766 136.766,92.9326 136,90.5C 135.667,91.1667 135.333,91.8333 135,92.5C 134.29,91.0267 133.124,90.3601 131.5,90.5C 131.5,89.1667 131.5,87.8333 131.5,86.5C 132.5,86.5 133.5,86.5 134.5,86.5C 134.449,84.4305 135.115,82.5971 136.5,81C 135.528,78.8887 134.695,76.7221 134,74.5C 132.211,72.771 130.044,72.1043 127.5,72.5C 127.808,74.924 127.474,77.2573 126.5,79.5C 124.356,73.2008 122.19,66.8675 120,60.5C 119.667,60.1667 119.333,59.8333 119,59.5C 118.51,60.7932 118.343,62.1266 118.5,63.5C 116.939,60.5252 117.439,57.8585 120,55.5C 120.583,57.0016 121.416,58.3349 122.5,59.5C 123.429,60.5498 124.095,60.5498 124.5,59.5 Z"/></g>
<g><path style="opacity:1" fill="#3241c3" d="M 199.5,89.5 C 199.5,95.5 199.5,101.5 199.5,107.5C 198.732,106.737 198.232,105.737 198,104.5C 196.386,107.602 194.553,107.936 192.5,105.5C 190.082,106.457 187.916,107.791 186,109.5C 182.128,104.847 177.461,104.514 172,108.5C 171.125,106.487 169.791,106.487 168,108.5C 167.902,106.381 167.069,104.714 165.5,103.5C 164.52,106.086 164.187,108.753 164.5,111.5C 163.5,111.5 162.5,111.5 161.5,111.5C 161.813,108.753 161.48,106.086 160.5,103.5C 158.253,106.827 156.753,106.827 156,103.5C 155.333,104.167 154.667,104.833 154,105.5C 152.763,103.896 151.597,102.229 150.5,100.5C 149.285,103.809 148.285,107.142 147.5,110.5C 143.789,111.154 141.789,109.654 141.5,106C 141.908,104.07 142.575,102.236 143.5,100.5C 143.253,99.2867 142.586,98.62 141.5,98.5C 142.091,97.8485 142.757,97.1818 143.5,96.5C 142.197,92.9684 142.197,89.4684 143.5,86C 147.17,85.7208 150.837,85.8875 154.5,86.5C 154.5,87.8333 154.5,89.1667 154.5,90.5C 156.833,90.5 159.167,90.5 161.5,90.5C 161.5,91.5 161.5,92.5 161.5,93.5C 164.724,93.7965 167.724,93.1298 170.5,91.5C 171.192,92.0253 171.692,92.6919 172,93.5C 173.468,91.1839 175.301,90.8506 177.5,92.5C 184.923,91.9714 192.256,90.9714 199.5,89.5 Z"/></g>
<g><path style="opacity:1" fill="#f7f4f8" d="M 103.5,51.5 C 115.459,56.012 119.126,64.3454 114.5,76.5C 113.165,80.1493 110.498,81.816 106.5,81.5C 105.982,80.4226 105.648,79.2559 105.5,78C 107.039,74.8074 108.039,71.474 108.5,68C 108.492,66.2933 108.158,64.7933 107.5,63.5C 105.824,61.1663 103.491,60.1663 100.5,60.5C 91.1248,58.192 84.7915,61.692 81.5,71C 82.1725,74.4863 83.8391,77.3197 86.5,79.5C 89.1042,81.7823 92.1042,83.1157 95.5,83.5C 106.322,87.5724 116.989,92.2391 127.5,97.5C 129.795,100.297 132.295,102.964 135,105.5C 137.168,110.657 136.835,115.657 134,120.5C 131.331,124 128.498,127.333 125.5,130.5C 122.991,131.921 120.657,133.588 118.5,135.5C 113.825,138.17 109.159,140.837 104.5,143.5C 101.33,144.265 98.3298,145.265 95.5,146.5C 86.5412,148.998 78.5412,147.331 71.5,141.5C 66.1192,133.727 64.1192,125.06 65.5,115.5C 67.7985,107.584 72.1319,100.918 78.5,95.5C 79.1667,95.5 79.5,95.1667 79.5,94.5C 81.9029,94.448 84.2362,94.7814 86.5,95.5C 86.6602,97.1992 86.4935,98.8659 86,100.5C 72.9338,109.464 69.9338,121.131 77,135.5C 79.8795,138.269 83.3795,139.603 87.5,139.5C 100.782,136.859 112.449,131.026 122.5,122C 129.759,116.481 130.093,110.814 123.5,105C 116.923,100.971 109.923,97.8043 102.5,95.5C 94.5194,93.3429 87.1861,89.8429 80.5,85C 75.2331,80.7888 72.8998,75.2888 73.5,68.5C 73.5,68.1667 73.5,67.8333 73.5,67.5C 75.2267,64.3984 77.2267,61.3984 79.5,58.5C 86.4209,52.7666 94.4209,50.4333 103.5,51.5 Z"/></g>
<g><path style="opacity:1" fill="#634ea9" d="M 107.5,63.5 C 108.158,64.7933 108.492,66.2933 108.5,68C 108.039,71.474 107.039,74.8074 105.5,78C 105.648,79.2559 105.982,80.4226 106.5,81.5C 105.5,81.5 104.5,81.5 103.5,81.5C 103.5,79.8333 103.5,78.1667 103.5,76.5C 104.251,74.2871 105.418,72.2871 107,70.5C 107.497,68.1902 107.663,65.8568 107.5,63.5 Z"/></g>
<g><path style="opacity:1" fill="#603cb7" d="M 100.5,60.5 C 98.396,60.2011 96.396,60.5344 94.5,61.5C 95.2258,64.4629 94.2258,66.9629 91.5,69C 89.049,68.7273 86.549,69.2273 84,70.5C 84.2358,73.6462 85.0691,76.6462 86.5,79.5C 83.8391,77.3197 82.1725,74.4863 81.5,71C 84.7915,61.692 91.1248,58.192 100.5,60.5 Z"/></g>
<g><path style="opacity:1" fill="#5f35b2" d="M 78.5,95.5 C 72.1319,100.918 67.7985,107.584 65.5,115.5C 65.5,114.167 65.5,112.833 65.5,111.5C 65.5,109.833 65.5,108.167 65.5,106.5C 66.5,106.5 67.5,106.5 68.5,106.5C 68.5,104.5 68.5,102.5 68.5,100.5C 69.675,100.719 70.675,100.386 71.5,99.5C 70.8333,99.1667 70.1667,98.8333 69.5,98.5C 70.7973,96.6332 72.2973,96.2998 74,97.5C 75.3002,96.2927 76.8002,95.6261 78.5,95.5 Z"/></g>
<g><path style="opacity:1" fill="#353cc6" d="M 141.5,98.5 C 142.586,98.62 143.253,99.2867 143.5,100.5C 142.575,102.236 141.908,104.07 141.5,106C 141.789,109.654 143.789,111.154 147.5,110.5C 148.285,107.142 149.285,103.809 150.5,100.5C 151.597,102.229 152.763,103.896 154,105.5C 154.667,104.833 155.333,104.167 156,103.5C 156.753,106.827 158.253,106.827 160.5,103.5C 161.48,106.086 161.813,108.753 161.5,111.5C 162.5,111.5 163.5,111.5 164.5,111.5C 164.187,108.753 164.52,106.086 165.5,103.5C 167.069,104.714 167.902,106.381 168,108.5C 169.791,106.487 171.125,106.487 172,108.5C 177.461,104.514 182.128,104.847 186,109.5C 187.916,107.791 190.082,106.457 192.5,105.5C 194.553,107.936 196.386,107.602 198,104.5C 198.232,105.737 198.732,106.737 199.5,107.5C 199.5,113.167 199.5,118.833 199.5,124.5C 196.833,124.5 194.167,124.5 191.5,124.5C 191.5,125.5 191.5,126.5 191.5,127.5C 188.753,127.187 186.086,127.52 183.5,128.5C 179.42,132.948 175.253,137.282 171,141.5C 170.833,141.833 170.667,142.167 170.5,142.5C 172.423,143.308 174.423,143.808 176.5,144C 173.971,146.029 171.304,147.862 168.5,149.5C 167.549,153.073 166.215,156.407 164.5,159.5C 162.833,159.5 161.167,159.5 159.5,159.5C 160.279,165.418 159.112,170.751 156,175.5C 155.501,179.514 155.667,183.514 156.5,187.5C 155.189,191.407 154.522,195.407 154.5,199.5C 145.833,199.5 137.167,199.5 128.5,199.5C 128.811,195.32 128.145,191.32 126.5,187.5C 125.914,187.709 125.414,188.043 125,188.5C 124.837,186.324 124.004,184.491 122.5,183C 126.16,179.504 126.493,175.671 123.5,171.5C 123.221,168.994 124.054,166.994 126,165.5C 127.857,159.965 126.023,156.299 120.5,154.5C 119.833,152.5 119.167,150.5 118.5,148.5C 117.667,149.5 116.833,150.5 116,151.5C 115.667,150.833 115.333,150.167 115,149.5C 113.021,150.714 111.521,152.381 110.5,154.5C 108.889,153.68 108.222,152.346 108.5,150.5C 109.5,150.5 110.5,150.5 111.5,150.5C 111.785,148.712 111.452,147.045 110.5,145.5C 106.366,149.374 101.366,151.04 95.5,150.5C 95.5,151.5 95.5,152.5 95.5,153.5C 98.4869,153.998 101.487,154.498 104.5,155C 105.598,155.77 105.598,156.603 104.5,157.5C 101.5,157.5 98.5,157.5 95.5,157.5C 95.5,156.5 95.5,155.5 95.5,154.5C 89.0749,154.87 82.7416,154.37 76.5,153C 75.5,152.167 74.5,151.333 73.5,150.5C 77.4529,149.985 81.4529,149.819 85.5,150C 83.6183,149.802 81.9516,149.302 80.5,148.5C 85.9443,149.108 90.9443,148.442 95.5,146.5C 98.3298,145.265 101.33,144.265 104.5,143.5C 106.833,143.5 109.167,143.5 111.5,143.5C 111.5,142.5 111.5,141.5 111.5,140.5C 115.424,141.003 117.757,139.336 118.5,135.5C 120.657,133.588 122.991,131.921 125.5,130.5C 127.153,129.395 128.82,129.229 130.5,130C 129.306,127.342 130.306,126.176 133.5,126.5C 132.977,121.977 134.31,120.977 137.5,123.5C 137.833,123 138.167,122.5 138.5,122C 136.973,118.336 137.307,114.836 139.5,111.5C 137.653,108.801 136.653,105.801 136.5,102.5C 137.833,102.5 139.167,102.5 140.5,102.5C 140.433,101.041 140.766,99.7079 141.5,98.5 Z"/></g>
<g><path style="opacity:1" fill="#543abc" d="M 86.5,95.5 C 87.6567,98.0259 87.6567,100.693 86.5,103.5C 83.6078,105.776 80.9412,108.276 78.5,111C 79.3802,112.356 79.7135,113.856 79.5,115.5C 78.5,115.5 77.5,115.5 76.5,115.5C 77.1667,119.5 77.8333,123.5 78.5,127.5C 80.1992,127.34 81.8659,127.506 83.5,128C 81.4062,129.352 79.0728,129.852 76.5,129.5C 76.5494,132.099 77.5494,134.266 79.5,136C 85.1775,137.919 90.8442,137.919 96.5,136C 95.6198,134.644 95.2865,133.144 95.5,131.5C 97.0481,131.821 97.7148,132.821 97.5,134.5C 100.755,134.986 103.422,133.986 105.5,131.5C 104.482,130.148 103.149,129.148 101.5,128.5C 103.396,127.534 105.396,127.201 107.5,127.5C 104.723,121.747 106.723,118.414 113.5,117.5C 113.773,119.451 113.107,120.951 111.5,122C 113.48,123.825 115.813,124.659 118.5,124.5C 118.5,123.167 118.5,121.833 118.5,120.5C 117.167,120.5 115.833,120.5 114.5,120.5C 114.5,119.167 114.5,117.833 114.5,116.5C 115.833,116.5 117.167,116.5 118.5,116.5C 118.167,119.5 119.5,120.833 122.5,120.5C 122.672,118.508 122.005,116.842 120.5,115.5C 121.313,114.186 122.313,113.019 123.5,112C 120.607,110.851 117.607,110.351 114.5,110.5C 114.376,108.048 113.376,106.048 111.5,104.5C 111.919,103.328 112.585,102.328 113.5,101.5C 110.553,100.679 107.553,100.179 104.5,100C 103.418,98.6703 102.751,97.1703 102.5,95.5C 109.923,97.8043 116.923,100.971 123.5,105C 130.093,110.814 129.759,116.481 122.5,122C 112.449,131.026 100.782,136.859 87.5,139.5C 83.3795,139.603 79.8795,138.269 77,135.5C 69.9338,121.131 72.9338,109.464 86,100.5C 86.4935,98.8659 86.6602,97.1992 86.5,95.5 Z"/></g>
<g><path style="opacity:1" fill="#5633c3" d="M 73.5,68.5 C 72.8998,75.2888 75.2331,80.7888 80.5,85C 87.1861,89.8429 94.5194,93.3429 102.5,95.5C 102.751,97.1703 103.418,98.6703 104.5,100C 107.553,100.179 110.553,100.679 113.5,101.5C 112.585,102.328 111.919,103.328 111.5,104.5C 113.376,106.048 114.376,108.048 114.5,110.5C 117.607,110.351 120.607,110.851 123.5,112C 122.313,113.019 121.313,114.186 120.5,115.5C 122.005,116.842 122.672,118.508 122.5,120.5C 119.5,120.833 118.167,119.5 118.5,116.5C 117.167,116.5 115.833,116.5 114.5,116.5C 114.5,117.833 114.5,119.167 114.5,120.5C 115.833,120.5 117.167,120.5 118.5,120.5C 118.5,121.833 118.5,123.167 118.5,124.5C 115.813,124.659 113.48,123.825 111.5,122C 113.107,120.951 113.773,119.451 113.5,117.5C 106.723,118.414 104.723,121.747 107.5,127.5C 105.396,127.201 103.396,127.534 101.5,128.5C 103.149,129.148 104.482,130.148 105.5,131.5C 103.422,133.986 100.755,134.986 97.5,134.5C 97.7148,132.821 97.0481,131.821 95.5,131.5C 92.3614,130.156 92.0281,130.656 94.5,133C 91.0283,134.58 87.3616,134.913 83.5,134C 83.0426,133.586 82.7093,133.086 82.5,132.5C 84.7662,131.686 87.0995,131.186 89.5,131C 90.3366,129.989 90.67,128.822 90.5,127.5C 89.5,127.5 88.5,127.5 87.5,127.5C 87.4208,126.07 87.7542,124.736 88.5,123.5C 87.624,122.749 86.624,122.249 85.5,122C 88.3688,118.796 91.5354,115.963 95,113.5C 95.2492,114.624 95.7492,115.624 96.5,116.5C 97.9505,115.345 98.9505,113.845 99.5,112C 97.5273,111.505 95.5273,111.338 93.5,111.5C 93.7778,109.654 93.1112,108.32 91.5,107.5C 89.8888,108.32 89.2222,109.654 89.5,111.5C 88.1667,111.5 86.8333,111.5 85.5,111.5C 85.6822,109.325 86.3489,107.325 87.5,105.5C 87.4573,104.584 87.1239,103.917 86.5,103.5C 87.6567,100.693 87.6567,98.0259 86.5,95.5C 84.2362,94.7814 81.9029,94.448 79.5,94.5C 80.0906,93.8485 80.7573,93.1818 81.5,92.5C 81.1667,92.1667 80.8333,91.8333 80.5,91.5C 78.4272,92.4687 76.2605,93.1354 74,93.5C 72.3009,93.6134 71.1342,92.9468 70.5,91.5C 73.2899,93.182 75.6233,92.682 77.5,90C 72.2063,89.1822 72.2063,88.6822 77.5,88.5C 75.5413,84.4621 74.0413,80.1288 73,75.5C 72.2042,72.9615 72.3709,70.6282 73.5,68.5 Z"/></g>
<g><path style="opacity:1" fill="#6f30c9" d="M -0.5,58.5 C 4.85676,59.5677 6.6901,62.2343 5,66.5C 7.42807,67.63 9.59474,69.13 11.5,71C 10.6243,72.5848 9.29094,73.5848 7.5,74C 15.078,78.5767 21.7446,84.2433 27.5,91C 30.3757,92.1415 32.0424,94.3082 32.5,97.5C 36.5782,101.04 41.2448,103.207 46.5,104C 47.435,106.381 47.7683,108.881 47.5,111.5C 50.1667,111.5 52.8333,111.5 55.5,111.5C 56.193,106.528 57.693,106.528 60,111.5C 60.3333,110.167 60.6667,108.833 61,107.5C 62.8706,108.997 63.8706,110.997 64,113.5C 64.2784,112.584 64.7784,111.918 65.5,111.5C 65.5,112.833 65.5,114.167 65.5,115.5C 64.7757,121.738 63.7757,128.071 62.5,134.5C 60.2576,133.913 58.0909,133.579 56,133.5C 54.6974,133.978 53.5307,134.645 52.5,135.5C 50.9346,133.281 48.9346,132.948 46.5,134.5C 38.4618,131.703 31.1285,127.703 24.5,122.5C 23.6143,121.675 23.281,120.675 23.5,119.5C 19.9541,119.441 16.6208,118.608 13.5,117C 8.9378,113.259 4.27113,109.759 -0.5,106.5C -0.5,90.5 -0.5,74.5 -0.5,58.5 Z"/></g>
<g><path style="opacity:1" fill="#7b3dcf" d="M -0.5,106.5 C 4.27113,109.759 8.9378,113.259 13.5,117C 16.6208,118.608 19.9541,119.441 23.5,119.5C 23.281,120.675 23.6143,121.675 24.5,122.5C 31.1285,127.703 38.4618,131.703 46.5,134.5C 48.9346,132.948 50.9346,133.281 52.5,135.5C 53.4888,138.446 54.8221,141.113 56.5,143.5C 54.549,143.773 53.049,143.107 52,141.5C 51.6667,142.167 51.3333,142.833 51,143.5C 49.8151,141.397 48.1484,139.73 46,138.5C 39.6064,136.619 33.1064,135.786 26.5,136C 28.3978,137.417 30.0645,138.917 31.5,140.5C 25.7711,139.741 20.4378,138.074 15.5,135.5C 14.1447,129.884 10.478,126.884 4.5,126.5C 3.39542,124.389 1.72876,123.055 -0.5,122.5C -0.5,117.167 -0.5,111.833 -0.5,106.5 Z"/></g>
<g><path style="opacity:1" fill="#5d32ca" d="M 86.5,103.5 C 87.1239,103.917 87.4573,104.584 87.5,105.5C 86.3489,107.325 85.6822,109.325 85.5,111.5C 86.8333,111.5 88.1667,111.5 89.5,111.5C 89.2222,109.654 89.8888,108.32 91.5,107.5C 93.1112,108.32 93.7778,109.654 93.5,111.5C 95.5273,111.338 97.5273,111.505 99.5,112C 98.9505,113.845 97.9505,115.345 96.5,116.5C 95.7492,115.624 95.2492,114.624 95,113.5C 91.5354,115.963 88.3688,118.796 85.5,122C 86.624,122.249 87.624,122.749 88.5,123.5C 87.7542,124.736 87.4208,126.07 87.5,127.5C 88.5,127.5 89.5,127.5 90.5,127.5C 90.67,128.822 90.3366,129.989 89.5,131C 87.0995,131.186 84.7662,131.686 82.5,132.5C 82.7093,133.086 83.0426,133.586 83.5,134C 87.3616,134.913 91.0283,134.58 94.5,133C 92.0281,130.656 92.3614,130.156 95.5,131.5C 95.2865,133.144 95.6198,134.644 96.5,136C 90.8442,137.919 85.1775,137.919 79.5,136C 77.5494,134.266 76.5494,132.099 76.5,129.5C 79.0728,129.852 81.4062,129.352 83.5,128C 81.8659,127.506 80.1992,127.34 78.5,127.5C 77.8333,123.5 77.1667,119.5 76.5,115.5C 77.5,115.5 78.5,115.5 79.5,115.5C 79.7135,113.856 79.3802,112.356 78.5,111C 80.9412,108.276 83.6078,105.776 86.5,103.5 Z"/></g>
<g><path style="opacity:1" fill="#1d36c1" d="M 199.5,124.5 C 199.5,149.5 199.5,174.5 199.5,199.5C 184.5,199.5 169.5,199.5 154.5,199.5C 154.522,195.407 155.189,191.407 156.5,187.5C 155.667,183.514 155.501,179.514 156,175.5C 159.112,170.751 160.279,165.418 159.5,159.5C 161.167,159.5 162.833,159.5 164.5,159.5C 166.215,156.407 167.549,153.073 168.5,149.5C 171.304,147.862 173.971,146.029 176.5,144C 174.423,143.808 172.423,143.308 170.5,142.5C 170.667,142.167 170.833,141.833 171,141.5C 175.253,137.282 179.42,132.948 183.5,128.5C 186.086,127.52 188.753,127.187 191.5,127.5C 191.5,126.5 191.5,125.5 191.5,124.5C 194.167,124.5 196.833,124.5 199.5,124.5 Z"/></g>
<g><path style="opacity:1" fill="#6d41ce" d="M 65.5,115.5 C 64.1192,125.06 66.1192,133.727 71.5,141.5C 72.4379,146.434 75.4379,148.767 80.5,148.5C 81.9516,149.302 83.6183,149.802 85.5,150C 81.4529,149.819 77.4529,149.985 73.5,150.5C 74.5,151.333 75.5,152.167 76.5,153C 82.7416,154.37 89.0749,154.87 95.5,154.5C 95.5,155.5 95.5,156.5 95.5,157.5C 95.5,158.167 95.5,158.833 95.5,159.5C 88.8002,159.17 82.1335,159.503 75.5,160.5C 76.6709,162.169 78.0042,163.669 79.5,165C 79.0946,165.945 78.428,166.612 77.5,167C 79.3963,168.065 79.563,168.898 78,169.5C 76.3379,168.003 74.8379,166.337 73.5,164.5C 72.8333,164.833 72.1667,165.167 71.5,165.5C 69.1324,164.111 66.7991,162.778 64.5,161.5C 64.7828,160.711 65.2828,160.044 66,159.5C 68.1308,161.544 70.6308,162.377 73.5,162C 71.2858,160.191 68.9524,158.524 66.5,157C 65.552,156.517 64.552,156.351 63.5,156.5C 63.5,155.5 63.5,154.5 63.5,153.5C 61.5165,153.617 59.8498,152.95 58.5,151.5C 57.5224,151.977 56.6891,152.643 56,153.5C 54.3333,152.167 52.6667,150.833 51,149.5C 50.6667,149.833 50.3333,150.167 50,150.5C 47.4631,148.568 44.7965,146.901 42,145.5C 40.187,146.609 39.3537,145.942 39.5,143.5C 36.8333,143.5 34.1667,143.5 31.5,143.5C 31.5,142.5 31.5,141.5 31.5,140.5C 30.0645,138.917 28.3978,137.417 26.5,136C 33.1064,135.786 39.6064,136.619 46,138.5C 48.1484,139.73 49.8151,141.397 51,143.5C 51.3333,142.833 51.6667,142.167 52,141.5C 53.049,143.107 54.549,143.773 56.5,143.5C 54.8221,141.113 53.4888,138.446 52.5,135.5C 53.5307,134.645 54.6974,133.978 56,133.5C 58.0909,133.579 60.2576,133.913 62.5,134.5C 63.7757,128.071 64.7757,121.738 65.5,115.5 Z"/></g>
<g><path style="opacity:1" fill="#5b4bb1" d="M 118.5,135.5 C 117.757,139.336 115.424,141.003 111.5,140.5C 111.5,141.5 111.5,142.5 111.5,143.5C 109.167,143.5 106.833,143.5 104.5,143.5C 109.159,140.837 113.825,138.17 118.5,135.5 Z"/></g>
<g><path style="opacity:1" fill="#634aaf" d="M 71.5,141.5 C 78.5412,147.331 86.5412,148.998 95.5,146.5C 90.9443,148.442 85.9443,149.108 80.5,148.5C 75.4379,148.767 72.4379,146.434 71.5,141.5 Z"/></g>
<g><path style="opacity:1" fill="#7e4bd5" d="M -0.5,122.5 C 1.72876,123.055 3.39542,124.389 4.5,126.5C 10.478,126.884 14.1447,129.884 15.5,135.5C 20.4378,138.074 25.7711,139.741 31.5,140.5C 31.5,141.5 31.5,142.5 31.5,143.5C 34.1667,143.5 36.8333,143.5 39.5,143.5C 39.3537,145.942 40.187,146.609 42,145.5C 44.7965,146.901 47.4631,148.568 50,150.5C 50.3333,150.167 50.6667,149.833 51,149.5C 52.6667,150.833 54.3333,152.167 56,153.5C 56.6891,152.643 57.5224,151.977 58.5,151.5C 59.8498,152.95 61.5165,153.617 63.5,153.5C 63.5,154.5 63.5,155.5 63.5,156.5C 64.552,156.351 65.552,156.517 66.5,157C 68.9524,158.524 71.2858,160.191 73.5,162C 70.6308,162.377 68.1308,161.544 66,159.5C 65.2828,160.044 64.7828,160.711 64.5,161.5C 60.6302,162.022 60.1302,163.022 63,164.5C 63.4955,166.473 63.6621,168.473 63.5,170.5C 61.8868,170.056 60.7202,169.056 60,167.5C 59.0293,168.198 57.8626,168.198 56.5,167.5C 55.3527,167.818 54.5194,168.484 54,169.5C 50.8112,165.492 46.6445,163.492 41.5,163.5C 32.4548,158.376 23.1215,153.543 13.5,149C 8.8532,145.532 4.18654,142.366 -0.5,139.5C -0.5,133.833 -0.5,128.167 -0.5,122.5 Z"/></g>
<g><path style="opacity:1" fill="#4542ca" d="M 128.5,199.5 C 124.833,199.5 121.167,199.5 117.5,199.5C 117.509,197.692 117.009,196.025 116,194.5C 115.667,194.833 115.333,195.167 115,195.5C 114.501,191.514 114.334,187.514 114.5,183.5C 113.5,183.5 112.5,183.5 111.5,183.5C 111.665,180.15 111.498,176.817 111,173.5C 110.5,173 110,172.5 109.5,172C 115.113,169.066 114.78,167.399 108.5,167C 107.789,165.745 106.956,164.579 106,163.5C 105.333,164.833 104.667,164.833 104,163.5C 103.691,162.234 103.191,161.067 102.5,160C 103.756,159.583 104.423,158.75 104.5,157.5C 105.598,156.603 105.598,155.77 104.5,155C 101.487,154.498 98.4869,153.998 95.5,153.5C 95.5,152.5 95.5,151.5 95.5,150.5C 101.366,151.04 106.366,149.374 110.5,145.5C 111.452,147.045 111.785,148.712 111.5,150.5C 110.5,150.5 109.5,150.5 108.5,150.5C 108.222,152.346 108.889,153.68 110.5,154.5C 111.521,152.381 113.021,150.714 115,149.5C 115.333,150.167 115.667,150.833 116,151.5C 116.833,150.5 117.667,149.5 118.5,148.5C 119.167,150.5 119.833,152.5 120.5,154.5C 126.023,156.299 127.857,159.965 126,165.5C 124.054,166.994 123.221,168.994 123.5,171.5C 126.493,175.671 126.16,179.504 122.5,183C 124.004,184.491 124.837,186.324 125,188.5C 125.414,188.043 125.914,187.709 126.5,187.5C 128.145,191.32 128.811,195.32 128.5,199.5 Z"/></g>
<g><path style="opacity:1" fill="#8d58de" d="M -0.5,139.5 C 4.18654,142.366 8.8532,145.532 13.5,149C 23.1215,153.543 32.4548,158.376 41.5,163.5C 41.9857,166.011 42.9857,168.177 44.5,170C 42.5104,169.862 40.5104,169.362 38.5,168.5C 36.1088,169.191 36.1088,170.191 38.5,171.5C 38.1667,171.833 37.8333,172.167 37.5,172.5C 36.5832,171.873 35.5832,171.539 34.5,171.5C 33.5,171.5 32.5,171.5 31.5,171.5C 28.1523,170.988 25.8189,169.155 24.5,166C 20.344,165.586 16.344,164.586 12.5,163C 8.23037,159.865 3.89704,157.031 -0.5,154.5C -0.5,149.5 -0.5,144.5 -0.5,139.5 Z"/></g>
<g><path style="opacity:1" fill="#654bd3" d="M 95.5,159.5 C 96.0476,161.394 97.0476,163.06 98.5,164.5C 97.1667,165.833 97.1667,167.167 98.5,168.5C 96.4066,170.305 95.2399,172.638 95,175.5C 93.7827,174.614 92.4493,173.614 91,172.5C 92.466,175.121 92.966,177.954 92.5,181C 91.2676,184.39 90.4342,184.223 90,180.5C 88.583,181.078 87.7496,182.078 87.5,183.5C 86.7784,183.918 86.2784,184.584 86,185.5C 85.5291,183.754 84.8624,182.087 84,180.5C 83.6667,180.833 83.3333,181.167 83,181.5C 81.7581,180.128 80.2581,179.128 78.5,178.5C 77.6143,177.675 77.281,176.675 77.5,175.5C 75.64,176.071 73.9733,176.071 72.5,175.5C 70.093,174.206 67.9263,172.539 66,170.5C 65.0228,171.774 64.1894,171.774 63.5,170.5C 63.6621,168.473 63.4955,166.473 63,164.5C 60.1302,163.022 60.6302,162.022 64.5,161.5C 66.7991,162.778 69.1324,164.111 71.5,165.5C 72.1667,165.167 72.8333,164.833 73.5,164.5C 74.8379,166.337 76.3379,168.003 78,169.5C 79.563,168.898 79.3963,168.065 77.5,167C 78.428,166.612 79.0946,165.945 79.5,165C 78.0042,163.669 76.6709,162.169 75.5,160.5C 82.1335,159.503 88.8002,159.17 95.5,159.5 Z"/></g>
<g><path style="opacity:1" fill="#524ad0" d="M 95.5,157.5 C 98.5,157.5 101.5,157.5 104.5,157.5C 104.423,158.75 103.756,159.583 102.5,160C 103.191,161.067 103.691,162.234 104,163.5C 104.667,164.833 105.333,164.833 106,163.5C 106.956,164.579 107.789,165.745 108.5,167C 114.78,167.399 115.113,169.066 109.5,172C 110,172.5 110.5,173 111,173.5C 111.498,176.817 111.665,180.15 111.5,183.5C 112.5,183.5 113.5,183.5 114.5,183.5C 114.334,187.514 114.501,191.514 115,195.5C 115.333,195.167 115.667,194.833 116,194.5C 117.009,196.025 117.509,197.692 117.5,199.5C 111.167,199.5 104.833,199.5 98.5,199.5C 96.8203,195.133 94.987,190.8 93,186.5C 92.6667,186.833 92.3333,187.167 92,187.5C 91.6667,186.5 91.3333,185.5 91,184.5C 90.6667,184.833 90.3333,185.167 90,185.5C 89.5831,184.244 88.7498,183.577 87.5,183.5C 87.7496,182.078 88.583,181.078 90,180.5C 90.4342,184.223 91.2676,184.39 92.5,181C 92.966,177.954 92.466,175.121 91,172.5C 92.4493,173.614 93.7827,174.614 95,175.5C 95.2399,172.638 96.4066,170.305 98.5,168.5C 97.1667,167.167 97.1667,165.833 98.5,164.5C 97.0476,163.06 96.0476,161.394 95.5,159.5C 95.5,158.833 95.5,158.167 95.5,157.5 Z"/></g>
<g><path style="opacity:1" fill="#9c6ae8" d="M -0.5,154.5 C 3.89704,157.031 8.23037,159.865 12.5,163C 16.344,164.586 20.344,165.586 24.5,166C 25.8189,169.155 28.1523,170.988 31.5,171.5C 31.5,172.833 31.5,174.167 31.5,175.5C 29.5,175.5 27.5,175.5 25.5,175.5C 26.461,179.794 29.1277,182.461 33.5,183.5C 33.3505,184.552 33.5172,185.552 34,186.5C 39.3132,189.585 43.1465,193.918 45.5,199.5C 41.8333,199.5 38.1667,199.5 34.5,199.5C 32.9113,198.128 31.5779,196.461 30.5,194.5C 27.8155,195.666 25.8155,194.833 24.5,192C 20.5148,192.013 17.5148,190.346 15.5,187C 10.3319,185.246 5.9986,182.246 2.5,178C 1.55198,177.517 0.551975,177.351 -0.5,177.5C -0.5,169.833 -0.5,162.167 -0.5,154.5 Z"/></g>
<g><path style="opacity:1" fill="#7e56db" d="M 41.5,163.5 C 46.6445,163.492 50.8112,165.492 54,169.5C 54.5194,168.484 55.3527,167.818 56.5,167.5C 57.8626,168.198 59.0293,168.198 60,167.5C 60.7202,169.056 61.8868,170.056 63.5,170.5C 64.1894,171.774 65.0228,171.774 66,170.5C 67.9263,172.539 70.093,174.206 72.5,175.5C 73.1383,177.46 73.1383,179.293 72.5,181C 73.1667,181.333 73.8333,181.667 74.5,182C 71.0722,184.931 67.5722,184.764 64,181.5C 63.5045,183.473 63.3379,185.473 63.5,187.5C 59.0991,186.641 55.4325,184.474 52.5,181C 50.8659,180.506 49.1992,180.34 47.5,180.5C 47.5,179.5 47.5,178.5 47.5,177.5C 45.8762,177.64 44.7096,176.973 44,175.5C 43.6667,175.833 43.3333,176.167 43,176.5C 42.5172,175.552 42.3505,174.552 42.5,173.5C 40.1432,173.663 37.8098,173.497 35.5,173C 34.944,172.617 34.6107,172.117 34.5,171.5C 35.5832,171.539 36.5832,171.873 37.5,172.5C 37.8333,172.167 38.1667,171.833 38.5,171.5C 36.1088,170.191 36.1088,169.191 38.5,168.5C 40.5104,169.362 42.5104,169.862 44.5,170C 42.9857,168.177 41.9857,166.011 41.5,163.5 Z"/></g>
<g><path style="opacity:1" fill="#a575ee" d="M -0.5,177.5 C 0.551975,177.351 1.55198,177.517 2.5,178C 5.9986,182.246 10.3319,185.246 15.5,187C 17.5148,190.346 20.5148,192.013 24.5,192C 25.8155,194.833 27.8155,195.666 30.5,194.5C 31.5779,196.461 32.9113,198.128 34.5,199.5C 22.8333,199.5 11.1667,199.5 -0.5,199.5C -0.5,192.167 -0.5,184.833 -0.5,177.5 Z"/></g>
<g><path style="opacity:1" fill="#8962e1" d="M 31.5,171.5 C 32.5,171.5 33.5,171.5 34.5,171.5C 34.6107,172.117 34.944,172.617 35.5,173C 37.8098,173.497 40.1432,173.663 42.5,173.5C 42.3505,174.552 42.5172,175.552 43,176.5C 43.3333,176.167 43.6667,175.833 44,175.5C 44.7096,176.973 45.8762,177.64 47.5,177.5C 47.5,178.5 47.5,179.5 47.5,180.5C 49.1992,180.34 50.8659,180.506 52.5,181C 55.4325,184.474 59.0991,186.641 63.5,187.5C 64.4584,187.953 65.2917,188.619 66,189.5C 66.3333,189.167 66.6667,188.833 67,188.5C 67.2389,192.387 68.0723,196.054 69.5,199.5C 61.5,199.5 53.5,199.5 45.5,199.5C 43.1465,193.918 39.3132,189.585 34,186.5C 33.5172,185.552 33.3505,184.552 33.5,183.5C 29.1277,182.461 26.461,179.794 25.5,175.5C 27.5,175.5 29.5,175.5 31.5,175.5C 31.5,174.167 31.5,172.833 31.5,171.5 Z"/></g>
<g><path style="opacity:1" fill="#6856d8" d="M 72.5,175.5 C 73.9733,176.071 75.64,176.071 77.5,175.5C 77.281,176.675 77.6143,177.675 78.5,178.5C 80.2581,179.128 81.7581,180.128 83,181.5C 83.3333,181.167 83.6667,180.833 84,180.5C 84.8624,182.087 85.5291,183.754 86,185.5C 86.2784,184.584 86.7784,183.918 87.5,183.5C 88.7498,183.577 89.5831,184.244 90,185.5C 90.3333,185.167 90.6667,184.833 91,184.5C 91.3333,185.5 91.6667,186.5 92,187.5C 92.3333,187.167 92.6667,186.833 93,186.5C 94.987,190.8 96.8203,195.133 98.5,199.5C 88.8333,199.5 79.1667,199.5 69.5,199.5C 68.0723,196.054 67.2389,192.387 67,188.5C 66.6667,188.833 66.3333,189.167 66,189.5C 65.2917,188.619 64.4584,187.953 63.5,187.5C 63.3379,185.473 63.5045,183.473 64,181.5C 67.5722,184.764 71.0722,184.931 74.5,182C 73.8333,181.667 73.1667,181.333 72.5,181C 73.1383,179.293 73.1383,177.46 72.5,175.5 Z"/></g>
</svg>
